<svg width="64" height="64" viewBox="0 0 64 64" fill="none" xmlns="http://www.w3.org/2000/svg">
<g clip-path="url(#clip0_91_2)">
<path d="M64 32C64 14.3269 49.6731 0 32 0C14.3269 0 0 14.3269 0 32C0 49.6731 14.3269 64 32 64C49.6731 64 64 49.6731 64 32Z" fill="#FCFCFC"/>
<path fill-rule="evenodd" clip-rule="evenodd" d="M27.316 20.667C25.683 19.531 23.7306 18.963 21.4586 18.963C19.1865 18.963 17.234 19.531 15.601 20.667C13.968 21.7793 12.7373 23.3176 11.909 25.282C11.0807 27.2463 10.6665 29.4946 10.6665 32.027C10.6665 34.5594 11.0807 36.8077 11.909 38.772C12.7373 40.7364 13.968 42.2865 15.601 43.4225C17.234 44.5349 19.1865 45.091 21.4586 45.091C23.7306 45.091 25.683 44.5349 27.316 43.4225C28.9491 42.2865 30.1797 40.7364 31.0081 38.772C31.8364 36.8077 32.2506 34.5594 32.2506 32.027C32.2506 29.4946 31.8364 27.2463 31.0081 25.282C30.1797 23.3176 28.9491 21.7793 27.316 20.667ZM24.5337 25.042C23.7403 24.208 22.7153 23.791 21.4586 23.791C19.7782 23.791 18.5002 24.5365 17.6245 26.0275C16.7725 27.5185 16.3465 29.5183 16.3465 32.027C16.3465 33.6019 16.5144 34.9762 16.8501 36.15L24.5337 25.042ZM18.3608 39.0092C19.1678 39.8451 20.2004 40.2631 21.4586 40.2631C23.1389 40.2631 24.4051 39.5175 25.2571 38.0266C26.1327 36.5355 26.5706 34.5357 26.5706 32.027C26.5706 30.4474 26.3969 29.0695 26.0497 27.8933L18.3608 39.0092Z" fill="#26272B"/>
<path d="M38.9914 34.725L32.3174 44.523H38.7074L41.8314 38.985C42.0681 38.6063 42.2101 38.1093 42.2574 37.494C42.2811 37.2574 42.3284 37.0799 42.3994 36.9615C42.4704 36.8195 42.6124 36.7485 42.8254 36.7485C43.1567 36.7485 43.3461 36.9615 43.3934 37.3876V37.494C43.4408 38.1093 43.5827 38.6063 43.8194 38.985L46.9434 44.523H53.3334L46.6594 34.725L52.7654 25.779H46.3754L43.8194 30.4295C43.5354 30.9265 43.3934 31.4235 43.3934 31.9205C43.3934 32.1335 43.3461 32.311 43.2514 32.453C43.1804 32.595 43.0384 32.666 42.8254 32.666C42.6124 32.666 42.4586 32.595 42.3639 32.453C42.2929 32.311 42.2574 32.1335 42.2574 31.9205C42.2574 31.4235 42.1154 30.9265 41.8314 30.4295L39.2754 25.779H32.8854L38.9914 34.725Z" fill="#26272B"/>
</g>
<defs>
<clipPath id="clip0_91_2">
<rect width="64" height="64" fill="white"/>
</clipPath>
</defs>
</svg>
