<svg width="64" height="64" viewBox="0 0 64 64" fill="none" xmlns="http://www.w3.org/2000/svg">
<path d="M18.3802 34.9633L19.7559 24.627L7.82324 16.3433L18.726 20.0364L21.3008 16.0858L30.7028 10.2519L51.4267 21.6696L52.5008 39.0904L43.2681 51.9206L35.9702 53.0389L39.7442 46.1309V39.4803L37.0001 34.2865L34.2119 32.4399L29.9229 36.8613V41.5402L26.5756 44.6742L22.3234 45.1892L20.4401 46.2559L17.3502 45.2701L16.0628 40.6354L18.3802 37.3763V34.9633Z" fill="white"/>
<path d="M37.4328 16.255C35.1596 15.7842 32.673 15.9093 32.673 15.9093C32.673 15.9093 31.8564 19.6833 26.7949 20.6765C26.8317 20.6765 33.4822 22.9497 37.4328 16.255Z" fill="#94A6C3"/>
<path d="M39.4919 50.5008C42.236 48.3526 44.2958 45.3952 45.2449 42.0479C45.289 41.9228 45.6716 41.7021 45.929 41.5329C46.3557 41.2754 46.7898 41.0621 46.8707 40.7163C47.0399 39.7305 47.1282 38.7006 47.1282 37.6706C47.1282 37.2881 46.7383 36.8982 46.3557 36.5156C46.0541 36.2581 45.7525 35.9565 45.7525 35.7431C45.3258 31.8367 43.5234 28.1878 40.6469 25.532L40.3453 25.8336C43.1335 28.4526 44.9359 32.0133 45.3258 35.7873C45.3699 36.133 45.7083 36.4715 46.0541 36.8172C46.3557 37.0747 46.7015 37.4646 46.7015 37.6338C46.7015 38.6196 46.6132 39.6054 46.444 40.5912C46.3999 40.7604 46.0173 40.937 45.7157 41.1062C45.289 41.3196 44.8991 41.5329 44.8182 41.8787C43.7882 45.5276 41.4267 48.7057 38.2927 50.7656C38.8518 49.5665 40.6101 45.66 41.5518 43.6811L41.3826 37.3322L35.9312 32.0574L32.8414 32.4841L29.4499 37.9796C29.4499 37.9796 31.039 39.9953 28.8025 42.3569C26.6176 44.6742 24.8961 45.1892 24.8961 45.1892L23.307 44.3285C23.7779 43.7252 24.7269 42.8277 25.4552 42.2244C26.6985 41.1945 27.9418 41.1062 27.9418 39.9953C27.9933 37.6706 25.4993 38.3106 25.4993 38.3106L24.5945 39.1714L24.2119 42.3495L22.3286 44.711L22.1152 44.6669L19.0254 43.9827C19.0254 43.9827 20.9161 42.9969 21.2177 41.8787C21.5193 40.8046 20.6144 37.2439 20.5703 37.0306C20.6144 37.0747 21.4752 37.803 21.8577 39.0022C22.5419 37.1115 23.4468 35.3091 23.7043 35.1399C23.9618 34.9707 27.4342 33.1241 27.4342 33.1241L26.2792 36.1698L27.1399 35.699L29.1998 30.6376C29.1998 30.6376 31.2155 29.6517 32.7163 29.6517C35.4162 29.6076 39.411 26.3044 37.6086 20.3822C38.1235 20.5956 47.0473 25.0611 48.5922 33.8157C49.7472 40.5471 45.929 46.8518 39.4919 50.5008Z" fill="#94A6C3"/>
<path d="M29.2804 17.1968C30.2662 16.0344 29.8837 14.3203 29.8837 14.3203L27.0072 18.5725C26.963 18.5725 28.0298 18.6166 29.2804 17.1968Z" fill="#1B314F"/>
<path d="M19.6242 40.4146L19.97 38.7005C19.97 38.7005 18.5502 41.1871 18.4251 41.5329C18.2927 41.9228 18.5134 42.6069 19.0651 42.5628C19.6242 42.5187 20.3084 41.7021 20.3084 41.1062C20.3084 40.3337 19.6242 40.4146 19.6242 40.4146Z" fill="#1B314F"/>
<path d="M45.1158 13.121C45.1158 13.121 47.2639 13.2093 49.493 13.4668C44.4684 9.51624 39.7086 8.36123 35.8463 8.36123C30.5273 8.36123 26.9225 10.5535 26.7018 10.6786L28.3791 8.01546C28.3791 8.01546 21.6845 7.36806 19.323 14.4526C18.7197 12.9518 18.168 10.7595 18.168 10.7595C18.168 10.7595 14.6882 13.8126 16.3214 18.874C12.3267 17.4174 6.62522 15.3943 6.40452 15.3575C6.10289 15.3134 6.01461 15.4458 6.01461 15.4458C6.01461 15.4458 5.92633 15.5708 6.18381 15.7916C6.662 16.1667 15.674 22.8246 17.653 24.112C17.2263 25.657 17.2263 26.3853 17.653 27.1136C18.2563 28.0994 18.293 28.6144 18.2121 29.3427C18.1238 30.071 17.3514 36.3831 17.1822 37.1556C17.013 37.928 15.2106 40.6721 15.2915 41.4887C15.3798 42.3053 16.4906 45.7777 17.4838 46.1676C18.2121 46.4251 20.0145 46.9842 21.2137 46.9842C21.6404 46.9842 22.0303 46.8959 22.1995 46.7267C22.9278 46.0867 23.1411 45.9543 23.6561 45.9543C23.7003 45.9543 23.7444 45.9543 23.7812 45.9543C23.9945 45.9543 24.252 45.9984 24.5536 45.9984C25.2378 45.9984 26.1427 45.866 26.7827 45.2701C27.7244 44.3284 29.3576 43.041 29.8726 42.4377C30.52 41.6211 30.8584 40.5103 30.6892 39.392C30.5567 38.3621 31.1159 37.4572 31.7633 36.5597C32.5799 35.4856 34.0806 33.5581 34.0806 33.5581C37.0454 35.7799 38.892 39.1713 38.892 42.9453C38.892 49.64 33.058 55.0472 25.8484 55.0472C24.7302 55.0472 23.6635 54.9221 22.5894 54.6647C25.8926 55.8197 28.6808 56.2096 30.9614 56.2096C35.8095 56.2096 38.3843 54.4513 38.3843 54.4513C38.3843 54.4513 37.4868 55.6137 36.0228 56.9379C36.067 56.9379 36.067 56.9379 36.067 56.9379C44.0932 55.8197 47.9996 49.2133 47.9996 49.2133C47.9996 49.2133 47.698 51.3615 47.3154 52.8181C57.9901 44.7919 56.1877 34.7499 56.1436 34.4115C56.2318 34.5366 57.3059 35.824 57.8577 36.5155C59.5792 18.8299 45.1158 13.121 45.1158 13.121ZM28.6808 41.3636C28.5116 41.577 27.7833 42.2244 27.2683 42.6952C26.7533 43.1661 26.1942 43.6369 25.7675 44.0709C25.5983 44.2401 25.2525 44.3284 24.7376 44.3284C24.5683 44.3284 24.3918 44.3284 24.2667 44.3284C24.1784 44.3284 24.0975 44.3284 24.0092 44.3284C23.921 44.3284 23.8768 44.3284 23.84 44.3284C23.7076 44.3284 23.5825 44.3284 23.4501 44.3284C24.0975 43.4677 25.9808 41.4961 26.6282 41.0694C27.4007 40.5544 27.7906 40.0394 27.3124 39.1419C26.8416 38.237 25.5983 38.4577 25.5983 38.4577C25.5983 38.4577 26.3266 38.1561 26.974 38.1561C26.1574 37.9428 25.1275 38.1561 24.6566 38.6269C24.1417 39.0978 24.2299 40.7751 24.0166 41.8418C23.8032 42.9601 23.0749 43.5192 21.9567 44.5491C21.3534 45.1082 20.9268 45.2774 20.581 45.2774C19.8527 45.1524 18.9919 44.9317 18.3887 44.7183C17.962 44.1592 17.3146 42.3127 17.1454 41.5402C17.2704 41.1135 17.7854 40.2086 18.0429 39.6937C18.5579 38.7079 18.8595 38.1487 18.9478 37.6338C19.117 36.9054 19.6761 32.3958 19.8895 30.5124C20.4486 31.2407 21.221 32.4473 21.0445 33.2197C22.2878 31.4614 21.3902 29.74 20.9562 29.0558C20.5736 28.3716 20.0587 26.9959 20.4853 25.5393C20.912 24.0826 22.457 20.0438 22.457 20.0438C22.457 20.0438 22.9719 20.9486 23.7003 20.7721C24.4286 20.6029 30.3066 11.76 30.3066 11.76C30.3066 11.76 31.8957 15.2324 30.2183 17.7705C28.5042 20.3012 26.8269 20.7721 26.8269 20.7721C26.8269 20.7721 29.1884 21.1988 31.3733 19.6097C32.2709 21.7137 33.1316 23.8987 33.1758 24.2003C33.0433 24.502 31.3292 28.6217 31.16 28.8792C31.0717 28.9675 30.4758 29.1367 30.0418 29.225C29.3135 29.4383 28.8868 29.5708 28.7102 29.6958C28.4086 29.9533 27.0329 33.7273 26.3928 35.5739C25.6204 35.7872 24.8479 36.2213 24.2888 37.0747C24.5904 36.8613 25.5321 36.7289 26.2236 36.648C26.8269 36.6038 28.6661 37.5896 29.1443 39.4362C29.1443 39.4803 29.1443 39.4803 29.1443 39.5245C29.2399 40.2013 29.0265 40.8487 28.6808 41.3636ZM24.6493 41.8786C25.0392 41.3195 24.995 40.3778 25.0392 40.0762C25.0833 39.7746 25.1642 39.2155 25.51 39.1345C25.8558 39.0463 26.6724 39.1787 26.6724 39.7746C26.6724 40.3337 26.0691 40.4588 25.6424 40.8487C25.3335 41.1429 24.7302 41.7903 24.6493 41.8786ZM41.7684 33.6758C42.1951 31.4909 42.2393 29.6002 42.1142 28.0553C43.7842 30.2844 44.8141 32.9917 45.1158 35.7799C45.1599 36.1256 45.4983 36.464 45.8441 36.8098C46.1457 37.0673 46.4915 37.4131 46.4915 37.6264C46.4915 38.6122 46.4032 39.598 46.234 40.5912C46.1899 40.7163 45.8073 40.937 45.5057 41.1062C45.079 41.3195 44.6891 41.5329 44.6082 41.8786C43.6665 45.1818 41.6434 48.1024 38.9435 50.1623C42.9308 45.9984 44.8583 39.1272 41.7684 33.6758ZM39.0685 50.5449C41.8567 48.3967 44.0049 45.3951 44.9466 42.0037C44.9907 41.8786 45.3733 41.6579 45.6307 41.4887C46.0574 41.2754 46.4915 41.0179 46.5724 40.6721C46.7416 39.6863 46.8299 38.6564 46.8299 37.6264C46.8299 37.2439 46.44 36.854 46.0574 36.4714C45.8441 36.2139 45.4983 35.9123 45.4983 35.6989C45.1526 32.565 43.9093 29.6075 41.9818 27.1577C41.1211 22.008 37.6928 20.419 37.6045 20.3748C37.6928 20.5072 39.9219 23.7221 38.377 27.4962C36.7879 31.3143 32.7123 30.7184 32.3665 30.7552C32.0207 30.7552 30.6965 32.4693 29.0192 35.6474C28.8058 35.5592 27.901 35.3458 26.871 35.5224C27.6435 33.3742 28.8058 30.3285 29.0192 30.071C29.1075 29.9827 29.7475 29.8135 30.1816 29.6885C30.9982 29.4751 31.3807 29.3427 31.5131 29.1735C31.6014 29.0411 32.0281 28.0553 32.4548 27.0253C32.8447 27.0253 33.8305 26.937 33.9114 26.8929C33.9997 26.8046 34.8163 24.7079 34.8163 24.4505C34.8163 24.2371 33.139 20.0732 32.4989 18.4841C32.8006 18.1384 33.1022 17.7117 33.3965 17.2408C42.1951 18.1899 49.0663 25.657 49.0663 34.7058C49.0663 41.6579 44.9907 47.7125 39.0685 50.5449Z" fill="#1B314F"/>
<path d="M27.6548 27.3711C28.4714 26.4294 28.0447 24.6711 26.5365 24.3695C26.9264 23.472 27.4782 21.6696 27.4782 21.6696C27.4782 21.6696 23.1009 28.5334 22.7184 28.6659C22.3285 28.7983 21.9459 27.2902 21.9459 27.2902C21.1293 30.4241 23.3216 30.8508 23.5791 29.865C24.7783 29.556 26.8382 28.2686 27.6548 27.3711Z" fill="#1B314F"/>
<path d="M23.9111 29.0411L26.1402 25.2229C26.1402 25.2229 27.4277 25.8703 26.7803 26.9003C25.971 28.0994 23.9111 29.0411 23.9111 29.0411Z" fill="#FFD923"/>
<path d="M51.5123 46.7267C50.8649 47.5875 50.1366 48.485 49.2832 49.3457C54.8155 38.7005 49.5407 28.9602 49.3273 28.5776C49.7172 28.9675 50.0998 29.3942 50.4456 29.7768C54.6904 34.4924 55.2054 41.577 51.5123 46.7267Z" fill="#D82122"/>
<path d="M56.6585 33.0357C54.7237 27.8419 51.9797 23.4204 45.9324 19.4331C40.0985 15.5708 33.8305 15.8724 33.4848 15.9166C33.4406 15.9166 33.3965 15.9166 33.3965 15.9166C33.6098 15.8283 33.8232 15.7841 34.0365 15.7473C35.3681 15.3207 37.0822 14.9749 38.8037 14.7615C43.3575 14.1068 47.9482 15.6517 51.0821 18.9622C51.1263 19.0064 51.1263 19.0064 51.1704 19.0505C54.7311 22.8245 56.5776 27.5402 56.6585 33.0357Z" fill="#D82122"/>
<path d="M44.5552 11.7895C38.1622 10.5904 34.0424 11.1863 31.0776 12.3045C30.9893 11.9587 30.6877 11.2745 30.4302 10.7154C29.54 11.7895 28.591 13.0769 27.9951 13.8935C26.3619 15.0118 25.6777 16.0859 25.6777 16.0859C26.6194 12.8636 29.3708 10.4653 32.7182 9.86204C33.6598 9.69283 34.6898 9.60455 35.808 9.60455C38.7654 9.64869 41.7228 10.377 44.5552 11.7895Z" fill="#D82122"/>
<path d="M20.9108 20.029C15.8935 19.8598 17.5635 14.0185 17.6518 13.6801C17.6518 13.7243 17.9902 18.2707 20.9108 20.029Z" fill="#D82122"/>
<path d="M25.8442 9.51622C21.9819 11.8336 22.7544 17.3659 22.7544 17.3659C19.0613 11.7527 25.5426 9.64864 25.8442 9.51622Z" fill="#D82122"/>
<path d="M19.5002 21.574C19.7577 21.7874 20.0152 22.1773 19.7135 22.7364C19.5443 23.038 19.2868 22.9939 18.8969 22.8247C18.382 22.5672 15.2921 20.7648 12.5039 18.9182C15.682 20.0364 18.8969 21.2356 19.4119 21.4931C19.4119 21.4931 19.456 21.5372 19.5002 21.574Z" fill="white"/>
</svg>
