<svg viewBox="0 0 10417 10417" xmlns="http://www.w3.org/2000/svg" xml:space="preserve" style="fill-rule:evenodd;clip-rule:evenodd;stroke-linejoin:round;stroke-miterlimit:2"><path style="fill:#fff" d="M0 0h10416.7v10416.7H0z"/><path d="m520.833 6558.58 1180.03-2323.31-131.615-135.365-1048.42 2458.68ZM1048.79 3553.95l-98.992-73.494 43.872-304.101 271.103 84.369 139.489-469.088 296.601-121.115 300.726 498.335-190.485 190.86-762.314 194.234ZM3049.63 4437l51.371-183.36-1147.03-439.84 106.116 362.971 685.445 355.472L3049.633 4437ZM1880.48 5990.88l-124.49-124.865 502.084-245.605-377.594 370.47ZM3056.76 6287.48l817.435-575.204 7.124-154.112-58.495-51.371-766.064 780.687Z" style="fill:#b62036"/><path d="m3177.87 4931.59-36.747-55.121 622.825-593.577 670.446 733.066 802.436-751.065 578.954 637.449-36.747 32.998-710.943 641.198s43.871 238.106 267.353 340.848c223.482 102.742 465.338 36.747 465.338 36.747l263.979 494.586-655.823 245.605-809.935-758.564-710.943 164.986s18.373-868.43 18.373-901.428c0-32.997-388.468-260.229-388.468-260.229H3177.12v-7.499h.75ZM5929.78 4906.09l-36.372-425.216 1088.16-150.363 109.867 2385.93-677.946-1993.72-227.232 80.618-153.738 95.243-102.741 7.499ZM7219.67 4305.01l-43.871-128.24 1663.74-700.069 113.616 817.06s-311.6 150.363-388.469 318.724l-76.869 168.737-106.117-267.354-469.087 18.374 51.371 380.969 142.863 399.343 168.737-62.245s69.744-29.247 128.24-139.113c62.245-109.867 106.116-208.859 106.116-208.859s80.619 95.243 249.355 128.24c168.737 32.997 289.477 14.624 289.477 14.624l25.498 157.487-469.087 282.353-384.72 109.866 121.116 234.356 183.36 175.861 1260.65 14.624-62.245 175.861-186.735 560.58 359.221 205.109-131.989 55.12-366.346-84.368-329.973-586.453H8143.97l-491.21-1572.25-113.616-337.098-318.725-124.491v-6.749h-.75Z" style="fill:#b62036"/><path d="m7091.43 6716.44-861.306-153.738-172.112-791.561s164.987-216.358 186.735-443.59c22.124-227.232-25.498-417.716-25.498-417.716h-186.735l29.248-230.982 780.688-194.234 249.355 2235.2v-3.375h-.375Z" style="fill:url(#a)"/><path d="m8945.66 7240.28 22.124-549.706-1143.28 51.371-604.827-2436.93 1495.38-545.956 153.737 509.209s-201.733 121.115-256.479 234.356c-54.746 113.241-131.989 289.477-131.989 289.477s-208.859-146.613-395.594-98.992c51.371 186.735 124.49 373.845 190.485 556.83 0 0 51.371 32.998 142.864-22.123 91.492-58.495 161.237-153.737 161.237-153.737s113.616 106.116 238.106 106.116 241.855 25.498 241.855 25.498l32.998 256.479-667.072 252.73 117.366 351.722 1172.53 121.115-179.611 568.08 230.982 267.354-824.559 223.482 3.749-6.375Z" style="fill:url(#b)"/><path d="m520.833 6558.58 1180.03-2323.31-652.448-681.696 76.869-197.984 201.734 32.997 186.735-472.837 128.24-62.245 223.482 340.848s-124.49 274.853-47.621 432.34c76.868 161.237 296.976 355.472 296.976 355.472l930.675 454.464-208.858 2253.57-535.082 18.374-36.747-417.717-388.469-300.351 377.595-370.095-14.249-578.954-124.49-7.499-905.178 1872.6-689.195-347.972Z" style="fill:url(#c)"/><path d="m3701.7 6899.43-644.949-611.951 817.06-575.204 7.499-153.737-699.694-626.95 582.704-406.843 674.196 487.461 780.687-487.461 568.08 403.093-721.817 619.451s-10.874 216.357 142.863 403.092c153.738 186.735 516.709 238.106 516.709 238.106l337.098 252.73-644.948 472.837-894.304-762.314-824.559 747.69h3.375Z" style="fill:url(#d)"/><path style="fill:#0092ff" d="M2565.92 7141.29h230.982v648.698H2565.92zM3452.72 7141.29h219.732v648.698H3452.72l-197.984-278.602v278.602h-219.733V7141.29h219.733l197.984 322.474V7141.29ZM3874.19 7141.29h512.959v172.486h-296.976v87.743h157.862v121.116h-157.862v267.353H3874.19V7141.29ZM4596.01 7141.29h230.982v648.698H4596.01zM5482.81 7141.29h219.733v648.698H5482.81l-197.984-278.602v278.602h-219.732V7141.29h219.732l197.984 322.474V7141.29ZM5922.65 7141.29h230.982v648.698H5922.65zM6369.61 7141.29h648.699v230.982H6809.45v417.716h-230.981v-417.716H6369.61V7141.29ZM7142.8 7141.29l285.727 362.971-120.741 271.103h274.853l307.851-630.324h-278.603l-76.869 168.736-135.739-179.61-256.479 7.124Z"/><path d="M5588.93 5158.82s117.365 22.123 117.365 289.477c0 267.353-80.618 282.352-80.618 282.352s-109.866-25.498-113.616-245.605c-3.75-220.108 69.744-326.224 69.744-326.224h7.125Z" style="fill:#fe9a41"/><path d="M5515.81 5528.91c0-14.624-3.75-25.498-3.75-40.497-3.75-219.732 69.744-326.224 69.744-326.224s121.116 22.124 124.49 278.603l-190.484 88.118Z" style="fill:#b62036"/><path d="m6441.91 2626.68-762.016 762.016 762.016 762.017 762.016-762.017-762.016-762.016Z" style="fill:#01c1ec"/><path d="m6098.51 3048.11 194.235 124.49 102.366-384.72s-161.237 73.12-296.601 260.23Z" style="fill:#00e9f2"/><path d="m5680.8 3388.96 714.692 245.606s252.73-55.121 392.219-106.117c142.864-51.371 413.967-135.739 413.967-135.739l-758.564 758.564L5680.8 3388.96Z" style="fill:#0070e1"/><path d="M6153.26 3165.48s-62.245-58.495-76.869 73.119c-10.874 102.742-22.123 300.351 18.373 395.594 18.374 36.747 43.872 25.498 95.243-3.75 43.871-29.248 208.858-161.237 278.603-219.732 69.744-58.496 216.357-230.982 234.356-106.117 7.499 51.371 18.373 95.242 0 208.858-3.75 36.747-22.123 62.245-88.118 7.5-51.371-36.747-95.243-76.869-95.243-76.869s-7.499-18.374-32.997 7.499c-18.373 22.124-29.248 25.498 0 43.872 25.498 18.373 164.987 128.24 219.732 146.613 43.872 14.624 69.745 18.374 76.869-73.119 3.75-69.745 14.624-274.853-7.499-362.971-14.624-55.121-43.872-80.619-109.866-25.498-65.995 55.121-271.104 234.356-384.719 311.6-73.12 47.621-106.117 95.242-128.24 3.75-14.624-69.745-25.498-278.603 47.621-234.356 47.621 25.497 69.744 25.497 51.371 40.496-18.374 14.624-76.869 58.496-76.869 58.496s-18.374 10.874-10.874 40.496c7.499 22.124 7.499 29.248 51.371-7.499 43.871-36.747 76.869-65.995 76.869-65.995s7.499-10.874 25.498 10.874c18.373 22.124 22.123 25.498 22.123 25.498s3.75 14.624 25.498-7.499c22.123-22.123 36.747-36.747 0-65.995-40.497-25.498-212.608-139.114-212.608-139.114v14.249h.375Z" style="fill:#fff"/><path d="m6589.35 3773.68-69.37 205.108 161.238-65.995 256.479-256.479-348.347 117.366Z" style="fill:#01bff3"/><defs><linearGradient id="a" x1="0" y1="0" x2="1" y2="0" gradientUnits="userSpaceOnUse" gradientTransform="rotate(90 1040.6 5521.47) scale(2235.39)"><stop offset="0" style="stop-color:#fe4d51;stop-opacity:1"/><stop offset="1" style="stop-color:#fed032;stop-opacity:1"/></linearGradient><linearGradient id="b" x1="0" y1="0" x2="1" y2="0" gradientUnits="userSpaceOnUse" gradientTransform="rotate(90 2369.015 6124.295) scale(3485.02)"><stop offset="0" style="stop-color:#fe4d51;stop-opacity:1"/><stop offset="1" style="stop-color:#fed032;stop-opacity:1"/></linearGradient><linearGradient id="c" x1="0" y1="0" x2="1" y2="0" gradientUnits="userSpaceOnUse" gradientTransform="rotate(90 -535.165 2318.625) scale(4053.03)"><stop offset="0" style="stop-color:#fe4d51;stop-opacity:1"/><stop offset="1" style="stop-color:#fed032;stop-opacity:1"/></linearGradient><linearGradient id="d" x1="0" y1="0" x2="1" y2="0" gradientUnits="userSpaceOnUse" gradientTransform="rotate(90 17.27 4542.11) scale(2392.97)"><stop offset="0" style="stop-color:#fe4d51;stop-opacity:1"/><stop offset="1" style="stop-color:#fed032;stop-opacity:1"/></linearGradient></defs></svg>