<svg width="87" height="34" fill="none" xmlns="http://www.w3.org/2000/svg"><path d="M62.0083 25.3572V3h4.4939v22.3572h-4.4939Z" fill="#F7A600"/><path d="M9.63407 31.9983H0V9.64111h9.24666c4.49394 0 7.11244 2.44919 7.11244 6.28029 0 2.4799-1.6817 4.0825-2.8457 4.6161 1.3894.6277 3.1679 2.0404 3.1679 5.0249 0 4.1749-2.9407 6.4359-7.04723 6.4359Zm-.74311-18.4628H4.4939v5.1497h4.39706c1.90714 0 2.97424-1.0364 2.97424-2.5757 0-1.5376-1.0671-2.574-2.97424-2.574Zm.29055 9.0749H4.4939v5.4952h4.68761c2.03739 0 3.00589-1.2553 3.00589-2.7638 0-1.5068-.9703-2.7314-3.00589-2.7314ZM30.3882 22.8293v9.169H25.926v-9.169L19.0073 9.64111h4.8813l4.3002 9.01159 4.2351-9.01159h4.8813l-6.917 13.18819ZM50.0457 31.9983h-9.6341V9.64111h9.2467c4.4939 0 7.1124 2.44919 7.1124 6.28029 0 2.4799-1.6817 4.0825-2.8457 4.6161 1.3894.6277 3.168 2.0404 3.168 5.0249 0 4.1749-2.9408 6.4359-7.0473 6.4359Zm-.7431-18.4628h-4.3971v5.1497h4.3971c1.9071 0 2.9742-1.0364 2.9742-2.5757 0-1.5376-1.0671-2.574-2.9742-2.574Zm.2905 9.0749h-4.6876v5.4952h4.6876c2.0374 0 3.0059-1.2553 3.0059-2.7638 0-1.5068-.9685-2.7314-3.0059-2.7314ZM80.986 13.5355V32h-4.4939V13.5355h-6.0136V9.64111h16.5211v3.89439H80.986Z" fill="#fff"/></svg>