<svg width="440" height="280" fill="none" xmlns="http://www.w3.org/2000/svg"><circle cx="89.897" cy="187.751" r="70.897" fill="#444"/><circle cx="349.536" cy="187.751" r="70.897" fill="#DDD"/><mask id="a" style="mask-type:alpha" maskUnits="userSpaceOnUse" x="44" y="22" width="350" height="174"><path fill="#C4C4C4" d="M44.866 22h348.739v173.412H44.866z"/></mask><g mask="url(#a)"><mask id="b" style="mask-type:alpha" maskUnits="userSpaceOnUse" x="46" y="24" width="347" height="481"><path fill-rule="evenodd" clip-rule="evenodd" d="M219.297 24.637c-95.701 0-173.282 75.301-173.282 168.189v311.207h86.895V200.862c0-46.307 38.676-83.846 86.385-83.846 47.71 0 86.386 37.539 86.386 83.846v303.171h86.898V192.826c0-92.888-77.581-168.189-173.282-168.189Z" fill="#E9BCFF"/></mask><g mask="url(#b)"><path d="M46.018 197.92c0-95.701 77.581-173.282 173.282-173.282 95.701 0 173.282 77.581 173.282 173.282v306.113H46.018V197.92Z" fill="#E9BCFF"/><path d="M65.673 200.579c0-84.973 68.884-153.858 153.858-153.858s153.858 68.885 153.858 153.858v334.139H65.673V200.579Z" fill="#2C98F3"/><path d="M85.883 200.181c0-72.552 58.815-131.367 131.367-131.367 72.552 0 131.367 58.815 131.367 131.367v383.741H85.883V200.181Z" fill="#58C971"/><path d="M110.421 202.796c0-60.131 48.745-108.877 108.876-108.877 60.131 0 108.877 48.746 108.877 108.877v442.379H110.421V202.796Z" fill="#FFCA42"/></g></g></svg>