<svg width="64" height="64" viewBox="0 0 64 64" fill="none" xmlns="http://www.w3.org/2000/svg">
<mask id="mask0_49_18" style="mask-type:luminance" maskUnits="userSpaceOnUse" x="10" y="9" width="44" height="46">
<path d="M53.4809 9H10V55H53.4809V9Z" fill="white"/>
</mask>
<g mask="url(#mask0_49_18)">
<path d="M13.4559 21.6243C14.1447 20.4853 15.4229 19.2311 14.8923 18.2717C14.3617 17.3123 10.8752 13.2175 10.3151 12.8182C9.75502 12.4189 9.94261 11.5694 10.8216 11.0897C11.7006 10.61 19.0408 7.9596 32.3088 9.44961C45.5768 10.9396 52.207 21.7931 52.456 29.4897H41.104C40.5641 27.5979 39.5026 25.8963 38.0412 24.5793C36.5797 23.2623 34.7771 22.3831 32.8393 22.0423C26.4908 21.7583 22.3049 26.9706 22.3049 31.7594C22.3049 36.5485 25.8557 41.5143 31.2288 41.7285C36.6019 41.943 40.1475 37.5428 40.8576 34.9538H52.456C52.456 34.9538 51.9951 39.7054 49.2642 43.5723C48.6266 44.4594 48.3318 44.7435 48.7285 45.593C49.1249 46.4425 52.9062 50.6847 53.1984 51.1806C53.4905 51.6763 53.8363 52.2097 52.6143 52.936C51.3921 53.662 31.0143 58.2044 20.7452 50.9152C10.4759 43.6261 8.34809 30.0579 13.4559 21.6243Z" fill="#3336D2"/>
</g>
</svg>
