<svg viewBox="0 0 120.41 120.38" xmlns="http://www.w3.org/2000/svg"><linearGradient id="a" gradientTransform="matrix(1 0 0 -1 0 120.76)" gradientUnits="userSpaceOnUse" x1="97.72" x2="22.79" y1="92.17" y2="29.31"><stop offset="0" stop-color="#50febe"/><stop offset="1" stop-color="#0adcdc"/></linearGradient><path d="M64.12 2.54A4 4 0 0 1 64.78 0l55.63 55.63a2.76 2.76 0 0 1-1.42.7H98.4a17.21 17.21 0 0 1-8.76-4.17L68.54 31a17.67 17.67 0 0 1-4.49-10.9zm36.09 61.68a17.43 17.43 0 0 0-10.88 4.45L68.47 89.54a17.32 17.32 0 0 0-4.56 10.85v18a4 4 0 0 0 .56 2l55.63-55.64a4.28 4.28 0 0 0-2.22-.49zm-80.29-8a18 18 0 0 0 10.89-4.48l20.86-20.83a17.69 17.69 0 0 0 4.52-10.85V2.5a4 4 0 0 0-.56-2.5L0 55.63a4.32 4.32 0 0 0 2.36.53zm36.13 44.13a17.72 17.72 0 0 0-4.48-10.85L30.7 68.64a17.69 17.69 0 0 0-10.85-4.52H2.47a4.77 4.77 0 0 0-2.23.45l55.64 55.64a5.18 5.18 0 0 0 .38-2zm27.4-43.26L63.39 37h-6.47L36.79 57v6.36l20 20.1h6.36l20.27-20a4.48 4.48 0 0 0 0-6.34z" fill="url(#a)"/></svg>