<svg width="64" height="64" viewBox="0 0 64 64" fill="none" xmlns="http://www.w3.org/2000/svg">
<path fill-rule="evenodd" clip-rule="evenodd" d="M51.8 46H59C59 45.6988 58.9951 45.3988 58.9853 45.1H53.3682L58.9266 43.9943C58.88 43.3593 58.8114 42.7303 58.7216 42.1081L53.4523 43.1562L58.5465 41.0461C58.4237 40.3837 58.2767 39.7298 58.1064 39.0853L53.1211 41.1503L57.8021 38.0225C57.591 37.3391 57.3536 36.6672 57.0908 36.0082L52.3538 39.1733L56.6223 34.9049C56.3094 34.2115 55.968 33.5337 55.5996 32.8729L51.153 37.3196L54.9071 31.7011C54.4783 31.0155 54.0195 30.3506 53.5327 29.7081L49.5389 35.6852L52.5303 28.4634C51.9739 27.8126 51.3871 27.1886 50.772 26.5935L47.7205 33.9606C50.2792 37.2967 51.8 41.4708 51.8 46ZM12.2 46C12.2 45.4546 12.222 44.9143 12.2653 44.3801H5.04779C5.01608 44.916 5 45.4561 5 46H12.2ZM12.74 41.3878L5.67312 39.9821C5.90894 38.9461 6.20434 37.9328 6.55553 36.9459L13.7229 38.3716C13.3181 39.3403 12.9881 40.3482 12.74 41.3878ZM15.0964 35.6839L8.38342 32.9033C8.88799 31.9954 9.44341 31.1196 10.0458 30.2798L16.946 33.138C16.2649 33.9344 15.6458 34.7856 15.0964 35.6839ZM18.9893 31.0744L12.8465 26.9699C13.5668 26.245 14.3278 25.5608 15.126 24.921L21.5234 29.1956C20.6283 29.7549 19.7811 30.3837 18.9893 31.0744ZM23.8935 27.9301L18.5479 22.5845C19.4216 22.0815 20.326 21.626 21.2578 21.2214L26.8995 26.8631C25.8615 27.1391 24.8571 27.4972 23.8935 27.9301ZM29.2215 26.3934L24.9099 19.9406C25.8693 19.6801 26.85 19.4713 27.8488 19.3171L32.4511 26.205C32.3012 26.2017 32.1508 26.2 32 26.2C31.057 26.2 30.1293 26.2659 29.2215 26.3934ZM34.3969 26.3436L31.3582 19.0075C31.5715 19.0025 31.7854 19 32 19C32.7809 19 33.554 19.0332 34.3182 19.0981L37.5914 27.0005C36.5591 26.6972 35.4917 26.4757 34.3969 26.3436ZM38.9829 27.4665L37.4065 19.5414C38.3613 19.7355 39.2977 19.9799 40.213 20.2718L41.9215 28.8613C40.9876 28.3196 40.0054 27.8519 38.9829 27.4665ZM42.74 29.3631V21.2205C43.6045 21.5957 44.4454 22.0148 45.26 22.475V31.2957C44.4746 30.5869 43.632 29.9401 42.74 29.3631ZM45.6199 31.6285L47.2005 23.6822C47.9458 24.1907 48.6643 24.7357 49.3534 25.3144L47.6514 33.8711C47.0317 33.0726 46.3523 32.3228 45.6199 31.6285Z" fill="#FBFF3A"/>
<path fill-rule="evenodd" clip-rule="evenodd" d="M44.6 45.9998H51.7999C51.7999 45.6552 51.7912 45.3127 51.7738 44.9723L48.1922 44.9098L51.7256 44.2709C51.6513 43.4134 51.5225 42.5715 51.3425 41.7488L47.2857 42.4824L51.1526 40.9592C50.9425 40.1585 50.6835 39.3777 50.3789 38.62L45.9536 40.3631L50.0073 37.7557C49.6754 37.0319 49.3012 36.3316 48.8878 35.6579L44.2839 38.6192L48.2937 34.747C47.8579 34.1172 47.3866 33.5139 46.8827 32.9401L42.3682 37.2996L46.027 32.0254C45.5076 31.5041 44.9594 31.0116 44.3849 30.5505L40.3058 36.4305L43.235 29.6938C42.6542 29.2929 42.051 28.9222 41.4276 28.584L38.539 35.2273C42.1729 37.4378 44.6 41.4354 44.6 45.9998ZM19.4 45.9998H12.2C12.2 45.6652 12.2083 45.3325 12.2247 45.0021L19.4297 45.1278C19.41 45.4159 19.4 45.7067 19.4 45.9998ZM39.9654 27.8673C39.3479 27.5956 38.7138 27.3545 38.0652 27.146L36.5256 34.237C37.1736 34.4865 37.7958 34.788 38.3871 35.1364L39.9654 27.8673ZM36.2976 26.6675C35.6701 26.5286 35.0313 26.4195 34.383 26.3417L34.2562 33.6012C34.9125 33.7199 35.5511 33.8894 36.1678 34.1054L36.2976 26.6675ZM32 26.1998C31.4953 26.1998 30.995 26.2187 30.4998 26.2558L31.7919 33.4015C31.8612 33.4004 31.9305 33.3998 32 33.3998C32.5666 33.3998 33.1244 33.4372 33.6711 33.5096L32.3499 26.2029C32.2335 26.2008 32.1168 26.1998 32 26.1998ZM28.2428 33.9695L24.2561 27.7715C23.7441 27.9893 23.2431 28.228 22.7543 28.4866L26.6725 34.5782C27.1785 34.3417 27.7029 34.1379 28.2428 33.9695ZM25.6006 35.1436L20.5104 29.8725C20.0841 30.1768 19.6703 30.4975 19.2701 30.8338L24.2906 36.0328C24.7073 35.71 25.1447 35.4129 25.6006 35.1436ZM17.2494 32.7912C16.9213 33.1574 16.6065 33.5359 16.3061 33.9259L22.2337 38.0381C22.5469 37.6544 22.8821 37.2895 23.2376 36.9455L17.2494 32.7912ZM14.6736 36.4093C14.4505 36.8115 14.241 37.2222 14.0457 37.641L20.6536 40.5142C20.8558 40.0967 21.0804 39.692 21.3259 39.3017L14.6736 36.4093ZM12.9583 40.5541C12.8407 40.9661 12.7361 41.3836 12.645 41.8061L19.6825 43.3342C19.7738 42.9102 19.8865 42.4942 20.0193 42.0872L12.9583 40.5541ZM30.9876 33.4399C30.3864 33.4877 29.7971 33.5777 29.2227 33.7069L26.5632 26.9556C27.1236 26.7959 27.6941 26.6603 28.2736 26.55L30.9876 33.4399Z" fill="#FBFF3A"/>
<path fill-rule="evenodd" clip-rule="evenodd" d="M43.5949 45.9997L44.6 45.9646C44.5994 45.7635 44.5942 45.5635 44.5843 45.3647L38.4765 45.578L38.3696 45.5606L44.4617 44.1261C44.4276 43.8972 44.3873 43.6703 44.3411 43.4457L38.5556 44.808L44.0495 42.3042C43.9726 42.0535 43.8882 41.8061 43.7965 41.5624L38.6513 43.9071L43.3511 40.5238C43.2234 40.2594 43.0867 40.0003 42.9414 39.7467L38.5174 42.9316L42.3539 38.8173C42.1682 38.5502 41.9725 38.2906 41.7672 38.039L38.1301 41.9392L41.0454 37.2281C40.7965 36.9714 40.5368 36.7254 40.267 36.4906L37.4799 40.9946L39.4172 35.813C39.1026 35.5835 38.7769 35.3683 38.4412 35.1682L36.5736 40.1633L37.472 34.6467C37.0935 34.4639 36.7044 34.2995 36.306 34.1546L35.4337 39.5103L35.235 33.8188C34.8003 33.7036 34.3563 33.6111 33.9045 33.5426L34.0984 39.095L32.7627 33.4224C32.5104 33.4073 32.2561 33.3996 32 33.3996C31.7696 33.3996 31.5406 33.4058 31.3131 33.418L32.6203 38.9693L30.1439 33.5354C29.6319 33.611 29.13 33.7174 28.64 33.8526L31.0639 39.1714L27.5035 34.2257C26.9959 34.4196 26.504 34.6455 26.0304 34.9008L29.5043 39.7263L24.9971 35.5233C24.5244 35.84 24.0742 36.1878 23.6496 36.5639L28.0209 40.6401L22.7887 37.4024C22.3829 37.837 22.0075 38.3003 21.6659 38.789L26.6971 41.9024L21.0362 39.786C20.7302 40.3248 20.4627 40.8884 20.2376 41.4731L25.6139 43.4832L19.8783 42.5491C19.7023 43.1687 19.5725 43.8076 19.4929 44.462L24.8448 45.3336L19.4089 45.5235C19.403 45.6815 19.4 45.8402 19.4 45.9997H26.6C26.6 43.0173 29.0177 40.5996 32 40.5996C34.9823 40.5996 37.4 43.0173 37.4 45.9997H43.5949Z" fill="#FBFF3A"/>
</svg>
