<svg viewBox="0 0 500 500" xmlns="http://www.w3.org/2000/svg" xml:space="preserve" style="fill-rule:evenodd;clip-rule:evenodd;stroke-linejoin:round;stroke-miterlimit:2"><path d="M0 0h500v500H0z"/><path d="M316.223 250c0 37.868-30.699 68.567-68.567 68.567-37.868 0-68.567-30.699-68.567-68.567 0-37.868 30.699-68.567 68.567-68.567 37.868 0 68.567 30.699 68.567 68.567ZM116.26 187.964c1.256-2.177 4.398-2.177 5.655 0l69.984 121.216c1.257 2.177-.314 4.898-2.828 4.898H49.103c-2.513 0-4.084-2.721-2.828-4.898l69.985-121.216Zm215.466-2.45a6.53 6.53 0 0 0-6.53 6.53v115.911a6.53 6.53 0 0 0 6.53 6.53h115.91a6.53 6.53 0 0 0 6.531-6.53V192.044a6.53 6.53 0 0 0-6.531-6.53h-115.91Z" style="fill:#fff;stroke:#fff;stroke-width:4.17px"/></svg>