<svg viewBox="0 0 500 500" xmlns="http://www.w3.org/2000/svg" xml:space="preserve" style="fill-rule:evenodd;clip-rule:evenodd;stroke-linejoin:round;stroke-miterlimit:2"><path style="fill:#f8f6f4" d="M0 0h500v500H0z"/><path d="M340.489 153.702c-6.555 7.324-21.852 7.253-28.408.662-6.555-6.591-8.741-19.347 0-27.403 8.741-8.055 21.853-5.117 28.408.741s6.555 18.678 0 26Z" style="fill:#483e5e;fill-rule:nonzero"/><path d="M271.666 101.377c-7.157 8.772-9.935 13.881-15.336 27.864-6.998 18.119-13.29 38.125-15.846 50.509-2.556 12.384 2.535 23.021 14.141 30.272 12.278 7.671 25.513 13.643 43.405 20.351 17.891 6.708 30.729 16.27 34.818 26.074 4.09 9.804 3.16 28.683-6.041 46.743-9.202 18.06-22.025 34.842-44.518 51.354-22.492 16.511-37.856 20.437-60.098 25.597-22.241 5.16-14.937 17.874-7.269 20.454 7.668 2.58 24.536 5.16 47.03 4.128 22.493-1.032 44.956-6.708 71.538-20.124 26.583-13.416 52.653-36.635 66.483-67.595 13.83-30.959 19.345-74.639 3.32-102.166-9.312-15.996-14.083-19.847-17.15-29.928-3.067-10.08-1.103-17.762 4.61-24.767 3.294-4.04 10.656-8.106 17.401-12.969 5.316-3.833 11.728-7.671 16.329-10.767 4.6-3.096 6.164-4.713 3.097-6.777l-.11-.074c-3.103-2.088-9.219-6.205-19.857-10.177-10.765-4.019-12.792-4.572-16.86-4.901-4.069-.328-9.181 3.284-17.36 9.476-8.179 6.192-11.757 7.401-12.268 14.448-.512 7.047-2.556 15.996-8.179 23.735-5.623 7.74-13.161 11.67-23.254 12.693-10.092 1.023-23.741-2.11-30.451-10.043-6.711-7.934-9.415-12.459-9.415-23.71 0-11.251 4.332-19.187 10.092-24.863 5.76-5.676 5.487-7.74 5.487-10.32s-1.339-11.356-2.459-15.447c-1.12-4.091-5.138-4.735-11.699-2.582-6.869 2.255-12.424 4.74-19.581 13.512Z" style="fill:#483e5e;fill-rule:nonzero"/><path d="M170.32 316.73c-3.312.874-5.635 6.557-12.138 17.923-6.502 11.366-12.603 19.672-24.244 32.35-11.64 12.677-18.952 17.923-37.47 29.289l-.477.293c-18.133 11.13-23.466 14.403-24.725 17.77-1.269 3.395-.522 7.869 13.09 9.967 13.612 2.099 24.961 2.57 44.625-10.981 19.664-13.552 35.114-26.667 55.489-36.284 20.375-9.617 26.754-9.013 49.576-15.737 22.822-6.725 43.627-19.921 57.984-35.955 14.357-16.036 21.535-32.197 24.442-41.381 2.907-9.184 3.32-21.421-4.446-27.542-7.419-5.848-11.428-7.606-27.804-13.727-17.416-6.51-23.198-8.141-36.029-18.343-12.091-9.614-11.374-11.911-18.972-12.931-7.598-1.021-13.357 10.345-15.92 16.035-1.93 4.281-2.259 11.84 2.849 18.955 5.108 7.114 9.857 14.945 23.848 22.894 13.991 7.95 20.51 9.221 30.049 10.811 9.54 1.591 13.265 3.848 10.701 8.376s-7.692 6.725-16.408 6.725c-8.717 0-21.023-4.012-33.329-11.253-8.678-5.107-14.869-10.862-19.393-16.552-4.397-5.531-7.034-6.334-11.111-6.334-4.076 0-7.43 2.586-12.306 9.827-4.876 7.242-8.465 15.087-8.978 19.336-.512 4.249-.973 8.988 6.719 14.678 7.691 5.69 14.337 8.783 23.053 10.334 8.717 1.552 15.35 4.275 8.965 10.092-6.385 5.816-14.124 4.528-20.277 2.976-6.153-1.552-15.081-6.365-18.46-8.551-3.378-2.186-5.59-3.934-8.903-3.06ZM363.569 112.476c4.626-2.879 9.739-6.658 9.739-9.301s-2.604-5.815-13.54-12.688-26.038-14.679-35.933-15.861c-9.895-1.182-5.608 14.541-4.442 20.759 1.166 6.218 1.514 11.059 5.626 11.562 4.112.503 7.196 1.005 10.794 2.01 3.598 1.006 8.224 3.174 13.364 6.19 5.14 3.016 9.766.208 14.392-2.671Z" style="fill:#483e5e;fill-rule:nonzero"/></svg>