<svg width="64" height="64" viewBox="0 0 64 64" fill="none" xmlns="http://www.w3.org/2000/svg">
<path d="M57.0692 23.1246L46.2047 7.30047C44.4985 4.82029 40.64 6.13691 40.766 9.15017C40.8816 11.8969 41.9069 14.8042 44.3606 18.3719L44.3619 18.3785L44.3591 18.3845L44.3532 18.3878L44.3466 18.3869C43.3428 17.6376 28.2091 6.25894 10.2199 12.3176H10.1996C8.21423 13.0626 7.20069 14.6886 7.70319 16.595C8.16826 18.3601 9.97615 19.4199 11.7734 19.1212C15.5944 18.4843 19.3867 18.1814 23.1158 18.5089C26.845 18.8365 30.4929 19.7934 33.8895 21.4644C37.2861 23.1353 40.363 25.4999 43.1909 28.2081C46.3715 31.2513 50.3178 37.7413 50.3178 37.7413C50.5491 38.1526 50.918 38.4689 51.3594 38.6344C51.8008 38.7998 52.2866 38.804 52.7307 38.6459C53.7999 38.2626 54.298 37.0284 53.8961 35.9697C53.0578 33.7569 52.0315 31.62 50.8287 29.5825L50.8261 29.5755L50.8286 29.5683L50.8352 29.5648L50.8427 29.5664C52.1727 30.0674 53.4033 30.6915 54.8594 30.3501C56.0473 30.0706 57.0896 29.2614 57.5739 28.1289C57.9246 27.3212 58.0624 26.437 57.974 25.5608C57.8856 24.6846 57.5741 23.8458 57.0692 23.1246Z" fill="url(#paint0_linear_49_18)"/>
<path d="M6.93063 40.6065L17.7952 56.4308C19.5015 58.911 23.36 57.5943 23.2338 54.5811C23.1184 51.8343 22.0931 48.927 19.6394 45.3593L19.6381 45.3528L19.6408 45.3466L19.6467 45.3435L19.6533 45.3443C20.6572 46.0936 35.7908 57.4723 53.7801 51.4137H53.8004C55.7857 50.6687 56.7993 49.0427 56.2968 47.1362C55.8317 45.3711 54.0237 44.3113 52.2266 44.61C48.4054 45.2469 44.6133 45.5499 40.8841 45.2224C37.155 44.8947 33.5071 43.9378 30.1105 42.2669C26.7139 40.5959 23.6369 38.2314 20.809 35.5231C17.6284 32.4799 13.6822 25.9899 13.6822 25.9899C13.4509 25.5786 13.082 25.2624 12.6405 25.0968C12.199 24.9314 11.7134 24.9274 11.2692 25.0853C10.2 25.4685 9.70182 26.7028 10.1038 27.7615C10.9422 29.9743 11.9684 32.1113 13.1712 34.1487L13.1739 34.1557L13.1713 34.1629L13.1646 34.1666L13.1573 34.1647C11.8273 33.6638 10.5967 33.0397 9.14053 33.3812C7.95271 33.6606 6.91031 34.4699 6.42599 35.6023C6.07537 36.4099 5.93764 37.2942 6.026 38.1704C6.11435 39.0466 6.42583 39.8854 6.93063 40.6065Z" fill="url(#paint1_linear_49_18)"/>
<defs>
<linearGradient id="paint0_linear_49_18" x1="60.6691" y1="53.7475" x2="-3.124" y2="-24.7238" gradientUnits="userSpaceOnUse">
<stop offset="0.15" stop-color="#B32EFF"/>
<stop offset="0.42" stop-color="#CE60D3"/>
<stop offset="0.65" stop-color="#E185B3"/>
<stop offset="0.84" stop-color="#EE9C9F"/>
<stop offset="0.96" stop-color="#F2A498"/>
</linearGradient>
<linearGradient id="paint1_linear_49_18" x1="3.33085" y1="9.98377" x2="67.124" y2="88.4552" gradientUnits="userSpaceOnUse">
<stop offset="0.15" stop-color="#B32EFF"/>
<stop offset="0.42" stop-color="#CE60D3"/>
<stop offset="0.65" stop-color="#E185B3"/>
<stop offset="0.84" stop-color="#EE9C9F"/>
<stop offset="0.96" stop-color="#F2A498"/>
</linearGradient>
</defs>
</svg>
