<svg viewBox="0 0 500 500" xmlns="http://www.w3.org/2000/svg" xml:space="preserve" style="fill-rule:evenodd;clip-rule:evenodd;stroke-linejoin:round;stroke-miterlimit:2"><path d="M100.261 73.72v257.06a31.809 31.809 0 0 0 3.196 13.869 32.137 32.137 0 0 0 8.944 11.131l122.422 97.281a24.445 24.445 0 0 0 15.179 5.272 24.442 24.442 0 0 0 15.175-5.272l122.422-97.281a32.073 32.073 0 0 0 8.944-11.131 31.78 31.78 0 0 0 3.196-13.869V73.72c0-8.503-3.409-16.653-9.481-22.666a32.56 32.56 0 0 0-22.894-9.387H132.636a32.552 32.552 0 0 0-22.891 9.387 31.904 31.904 0 0 0-9.484 22.666Z" style="fill:#004de5"/><path d="M337.299 190.192v-56.028a28.05 28.05 0 0 0-8.188-19.807 27.905 27.905 0 0 0-19.756-8.206h-118.76a27.912 27.912 0 0 0-19.759 8.206 28.057 28.057 0 0 0-8.185 19.807V296.73a28.04 28.04 0 0 0 10.482 21.85l43.24 34.806a3.482 3.482 0 0 0 3.71.438 3.507 3.507 0 0 0 1.984-3.169v-114.95a3.51 3.51 0 0 1 3.494-3.494h31.434a20.92 20.92 0 0 1 14.819 6.153 21.038 21.038 0 0 1 6.138 14.856v97.444a3.507 3.507 0 0 0 3.49 3.49c.794 0 1.565-.271 2.185-.768l43.244-34.806a28.06 28.06 0 0 0 10.478-21.85v-50.513a28.05 28.05 0 0 0-8.185-19.806 27.905 27.905 0 0 0-19.756-8.206 27.912 27.912 0 0 0 19.722-8.225 28.05 28.05 0 0 0 8.169-19.788Zm-80.338 14.006h-31.438a3.506 3.506 0 0 1-3.49-3.49V137.654a3.507 3.507 0 0 1 3.49-3.49h48.901a3.51 3.51 0 0 1 3.493 3.494v45.531a21.029 21.029 0 0 1-6.137 14.853 20.944 20.944 0 0 1-14.819 6.156Z" style="fill:#fff;fill-rule:nonzero"/></svg>