<svg width="64" height="64" viewBox="0 0 64 64" fill="none" xmlns="http://www.w3.org/2000/svg">
<path d="M28.8984 31.9964L51.2708 44.8113C51.4506 44.9194 51.6559 44.9776 51.8657 44.9801C52.0754 44.9825 52.2821 44.929 52.4643 44.8251C52.6466 44.7212 52.7979 44.5707 52.9026 44.389C53.0074 44.2073 53.062 44.0009 53.0606 43.7911V20.1838C53.0632 19.9737 53.0094 19.7667 52.9046 19.5846C52.7998 19.4024 52.648 19.2518 52.465 19.1484C52.2821 19.045 52.0747 18.9927 51.8646 18.997C51.6545 19.0012 51.4494 19.0619 51.2708 19.1726L28.8984 31.9964Z" fill="#31CB9E"/>
<path d="M50.7969 13.499L35.5031 2.25014C35.3442 2.12864 35.1577 2.04819 34.9602 2.01593C34.7628 1.98366 34.5604 2.00058 34.3711 2.06518C34.1817 2.12977 34.0112 2.24005 33.8746 2.38626C33.738 2.53247 33.6396 2.7101 33.588 2.90342L28.0039 27.9605L50.6626 15.4319C50.835 15.3432 50.9817 15.2116 51.0884 15.0497C51.195 14.8878 51.2582 14.7011 51.2717 14.5077C51.2852 14.3143 51.2486 14.1207 51.1654 13.9456C51.0822 13.7704 50.9553 13.6197 50.7969 13.5079" fill="#31CB9E"/>
<path d="M35.4852 61.7338L50.7969 50.4849C50.9554 50.3717 51.0824 50.2199 51.1659 50.0439C51.2494 49.8679 51.2866 49.6735 51.2741 49.4791C51.2615 49.2848 51.1996 49.0968 51.0942 48.933C50.9888 48.7692 50.8433 48.6349 50.6716 48.543L28.0039 36.0145L33.588 61.0715C33.6344 61.2662 33.7283 61.4463 33.8615 61.5957C33.9946 61.7451 34.1628 61.8591 34.3509 61.9274C34.539 61.9957 34.7411 62.0163 34.9391 61.9871C35.1371 61.958 35.3248 61.8802 35.4852 61.7606" fill="#31CB9E"/>
<path d="M23.0816 31.54L28.8984 4.3263C28.9428 4.10086 28.919 3.86729 28.8299 3.65549C28.7408 3.44369 28.5905 3.2633 28.3983 3.1374C28.2061 3.0115 27.9807 2.94583 27.7509 2.94878C27.5212 2.95173 27.2975 3.02319 27.1086 3.15399L12.2086 14.5818C11.8313 14.8712 11.526 15.2439 11.3164 15.6708C11.1069 16.0977 10.9987 16.5672 11.0005 17.0427V46.0373C10.9918 46.5204 11.0965 46.9987 11.3064 47.4339C11.5162 47.8691 11.8252 48.249 12.2086 48.543L27.037 59.9261C27.2259 60.0569 27.4496 60.1283 27.6793 60.1313C27.9091 60.1342 28.1345 60.0686 28.3267 59.9427C28.5189 59.8168 28.6692 59.6364 28.7583 59.4246C28.8474 59.2128 28.8712 58.9792 28.8268 58.7538L23.0816 31.54Z" fill="#31CB9E"/>
</svg>
