<svg width="64" height="64" viewBox="0 0 64 64" fill="none" xmlns="http://www.w3.org/2000/svg">
<mask id="mask0_49_18" style="mask-type:luminance" maskUnits="userSpaceOnUse" x="1" y="1" width="62" height="62">
<path d="M60.52 1H3.48C2.11033 1 1 2.11033 1 3.48V60.52C1 61.8897 2.11033 63 3.48 63H60.52C61.8897 63 63 61.8897 63 60.52V3.48C63 2.11033 61.8897 1 60.52 1Z" fill="white"/>
</mask>
<g mask="url(#mask0_49_18)">
<g opacity="0.4" filter="url(#filter0_f_49_18)">
<path d="M38.5894 57.3231C48.862 57.3231 57.1875 49.0461 57.1875 38.8354C57.1928 35.0639 56.0344 31.3825 53.8705 28.2935L38.4674 37.5121L23.0623 28.6578C21.0563 31.6727 19.9884 35.2142 19.9933 38.8354C19.9933 49.0461 28.3187 57.3231 38.5894 57.3231Z" fill="url(#paint0_radial_49_18)"/>
<path d="M38.5894 57.3231C48.862 57.3231 57.1875 49.0461 57.1875 38.8354C57.1928 35.0639 56.0344 31.3825 53.8705 28.2935L38.4674 37.5121L23.0623 28.6578C21.0563 31.6727 19.9884 35.2142 19.9933 38.8354C19.9933 49.0461 28.3187 57.3231 38.5894 57.3231Z" fill="url(#paint1_radial_49_18)" fill-opacity="0.5"/>
<path d="M38.5894 57.3231C48.862 57.3231 57.1875 49.0461 57.1875 38.8354C57.1928 35.0639 56.0344 31.3825 53.8705 28.2935L38.4674 37.5121L23.0623 28.6578C21.0563 31.6727 19.9884 35.2142 19.9933 38.8354C19.9933 49.0461 28.3187 57.3231 38.5894 57.3231Z" fill="url(#paint2_radial_49_18)"/>
<path d="M38.5894 57.3231C48.862 57.3231 57.1875 49.0461 57.1875 38.8354C57.1928 35.0639 56.0344 31.3825 53.8705 28.2935L38.4674 37.5121L23.0623 28.6578C21.0563 31.6727 19.9884 35.2142 19.9933 38.8354C19.9933 49.0461 28.3187 57.3231 38.5894 57.3231Z" fill="url(#paint3_radial_49_18)"/>
<path d="M25.4939 25.337L38.5914 32.8235V5.30908L25.4939 25.337Z" fill="url(#paint4_radial_49_18)"/>
<path d="M25.4939 25.337L38.5914 32.8235V5.30908L25.4939 25.337Z" fill="url(#paint5_radial_49_18)"/>
<path d="M51.6656 25.337L38.5914 32.8235V5.30908L51.6656 25.337Z" fill="url(#paint6_radial_49_18)"/>
<path d="M51.6656 25.337L38.5914 32.8235V5.30908L51.6656 25.337Z" fill="url(#paint7_radial_49_18)"/>
<path d="M51.6656 25.337L38.5914 32.8235V5.30908L51.6656 25.337Z" fill="url(#paint8_linear_49_18)" fill-opacity="0.6"/>
<path d="M53.8705 28.2896L38.5894 37.4928V57.2378L53.8705 28.2896Z" fill="url(#paint9_radial_49_18)"/>
<path d="M53.8705 28.2896L38.5894 37.4928V57.2378L53.8705 28.2896Z" fill="url(#paint10_radial_49_18)"/>
<path d="M53.8705 28.2896L38.5894 37.4928V57.2378L53.8705 28.2896Z" fill="url(#paint11_radial_49_18)"/>
<path d="M23.0487 28.6366L38.5894 37.491V57.238L23.0487 28.6366Z" fill="url(#paint12_radial_49_18)"/>
<path d="M23.0487 28.6366L38.5894 37.491V57.238L23.0487 28.6366Z" fill="url(#paint13_radial_49_18)"/>
<path d="M23.0487 28.6366L38.5894 37.491V57.238L23.0487 28.6366Z" fill="url(#paint14_radial_49_18)"/>
</g>
<path d="M32.0135 61.8454C43.7761 61.8454 53.3125 52.3652 53.3125 40.6704C53.3125 36.1832 51.9078 32.0214 49.513 28.5959L31.8702 39.1553L14.2273 29.0144C11.9296 32.4671 10.7066 36.5231 10.7127 40.6704C10.7127 52.3652 20.249 61.8473 32.0135 61.8473" fill="url(#paint15_radial_49_18)"/>
<path d="M32.0135 61.8454C43.7761 61.8454 53.3125 52.3652 53.3125 40.6704C53.3125 36.1832 51.9078 32.0214 49.513 28.5959L31.8702 39.1553L14.2273 29.0144C11.9296 32.4671 10.7066 36.5231 10.7127 40.6704C10.7127 52.3652 20.249 61.8473 32.0135 61.8473" fill="url(#paint16_radial_49_18)" fill-opacity="0.5"/>
<path d="M32.0135 61.8454C43.7761 61.8454 53.3125 52.3652 53.3125 40.6704C53.3125 36.1832 51.9078 32.0214 49.513 28.5959L31.8702 39.1553L14.2273 29.0144C11.9296 32.4671 10.7066 36.5231 10.7127 40.6704C10.7127 52.3652 20.249 61.8473 32.0135 61.8473" fill="url(#paint17_radial_49_18)"/>
<path d="M32.0135 61.8454C43.7761 61.8454 53.3125 52.3652 53.3125 40.6704C53.3125 36.1832 51.9078 32.0214 49.513 28.5959L31.8702 39.1553L14.2273 29.0144C11.9296 32.4671 10.7066 36.5231 10.7127 40.6704C10.7127 52.3652 20.249 61.8473 32.0135 61.8473" fill="url(#paint18_radial_49_18)"/>
<path d="M17.0134 25.2112L32.0135 33.7846V2.27118L17.0134 25.2112Z" fill="url(#paint19_radial_49_18)"/>
<path d="M17.0134 25.2112L32.0135 33.7846V2.27118L17.0134 25.2112Z" fill="url(#paint20_radial_49_18)"/>
<path d="M46.9884 25.2112L32.0115 33.7846V2.27118L46.9884 25.2112Z" fill="url(#paint21_radial_49_18)"/>
<path d="M46.9884 25.2112L32.0115 33.7846V2.27118L46.9884 25.2112Z" fill="url(#paint22_radial_49_18)"/>
<path d="M46.9884 25.2112L32.0115 33.7846V2.27118L46.9884 25.2112Z" fill="url(#paint23_linear_49_18)" fill-opacity="0.6"/>
<path d="M49.513 28.5921L32.0115 39.1302V61.7466L49.513 28.5921Z" fill="url(#paint24_radial_49_18)"/>
<path d="M49.513 28.5921L32.0115 39.1302V61.7466L49.513 28.5921Z" fill="url(#paint25_radial_49_18)"/>
<path d="M49.513 28.5921L32.0115 39.1302V61.7466L49.513 28.5921Z" fill="url(#paint26_radial_49_18)"/>
<path d="M14.2138 28.989L32.0117 39.1299V61.7463L14.2138 28.989Z" fill="url(#paint27_radial_49_18)"/>
<path d="M14.2138 28.989L32.0117 39.1299V61.7463L14.2138 28.989Z" fill="url(#paint28_radial_49_18)"/>
<path d="M14.2138 28.989L32.0117 39.1299V61.7463L14.2138 28.989Z" fill="url(#paint29_radial_49_18)"/>
</g>
<defs>
<filter id="filter0_f_49_18" x="14.9933" y="0.309082" width="47.1942" height="62.014" filterUnits="userSpaceOnUse" color-interpolation-filters="sRGB">
<feFlood flood-opacity="0" result="BackgroundImageFix"/>
<feBlend mode="normal" in="SourceGraphic" in2="BackgroundImageFix" result="shape"/>
<feGaussianBlur stdDeviation="2.5" result="effect1_foregroundBlur_49_18"/>
</filter>
<radialGradient id="paint0_radial_49_18" cx="0" cy="0" r="1" gradientUnits="userSpaceOnUse" gradientTransform="translate(52.3982 51.8611) rotate(-145.131) scale(33.8346 45.2507)">
<stop stop-color="#8AFBED" stop-opacity="0"/>
<stop offset="0.671" stop-color="#00A3FF" stop-opacity="0.457"/>
<stop offset="1" stop-color="#198CF6"/>
</radialGradient>
<radialGradient id="paint1_radial_49_18" cx="0" cy="0" r="1" gradientUnits="userSpaceOnUse" gradientTransform="translate(34.0014 26.0596) rotate(52.8106) scale(32.5738 26.5007)">
<stop stop-color="#35C2FF"/>
<stop offset="1" stop-color="#00A3FF" stop-opacity="0"/>
</radialGradient>
<radialGradient id="paint2_radial_49_18" cx="0" cy="0" r="1" gradientUnits="userSpaceOnUse" gradientTransform="translate(20.9717 27.4701) rotate(59.2776) scale(14.2325 18.2349)">
<stop stop-color="#3B52FC"/>
<stop offset="1" stop-color="#3B52FC" stop-opacity="0"/>
</radialGradient>
<radialGradient id="paint3_radial_49_18" cx="0" cy="0" r="1" gradientUnits="userSpaceOnUse" gradientTransform="translate(54.8124 24.0433) rotate(90.189) scale(21.184 27.1415)">
<stop stop-color="#2A6BFF"/>
<stop offset="1" stop-color="#2A6BFF" stop-opacity="0"/>
</radialGradient>
<radialGradient id="paint4_radial_49_18" cx="0" cy="0" r="1" gradientUnits="userSpaceOnUse" gradientTransform="translate(38.5604 19.0285) rotate(157.682) scale(16.093 40.3912)">
<stop stop-color="#00A3FF"/>
<stop offset="0.944" stop-color="#00A3FF" stop-opacity="0.29"/>
</radialGradient>
<radialGradient id="paint5_radial_49_18" cx="0" cy="0" r="1" gradientUnits="userSpaceOnUse" gradientTransform="translate(32.7884 8.45489) rotate(78.816) scale(18.7434 34.6741)">
<stop stop-color="#FF7272"/>
<stop offset="0.18" stop-color="#FF72A7"/>
<stop offset="1" stop-color="#7A51FF" stop-opacity="0"/>
</radialGradient>
<radialGradient id="paint6_radial_49_18" cx="0" cy="0" r="1" gradientUnits="userSpaceOnUse" gradientTransform="translate(37.122 6.28583) rotate(84.193) scale(45.6084 18.7835)">
<stop stop-color="#FFBFAB"/>
<stop offset="0.365" stop-color="#FF67A8" stop-opacity="0.87"/>
<stop offset="0.724" stop-color="#6BAFFF" stop-opacity="0"/>
</radialGradient>
<radialGradient id="paint7_radial_49_18" cx="0" cy="0" r="1" gradientUnits="userSpaceOnUse" gradientTransform="translate(38.5911 28.5203) rotate(-50.305) scale(13.9018 21.0839)">
<stop stop-color="#2238FF"/>
<stop offset="1" stop-color="#0047FF" stop-opacity="0"/>
</radialGradient>
<linearGradient id="paint8_linear_49_18" x1="51.7334" y1="29.4988" x2="43.1348" y2="25.5831" gradientUnits="userSpaceOnUse">
<stop stop-color="#29EDFE"/>
<stop offset="1" stop-color="#29EDFE" stop-opacity="0"/>
</linearGradient>
<radialGradient id="paint9_radial_49_18" cx="0" cy="0" r="1" gradientUnits="userSpaceOnUse" gradientTransform="translate(38.6205 53.6213) rotate(-65.238) scale(18.2574 41.1042)">
<stop stop-color="#4DEAFF"/>
<stop offset="0.944" stop-color="#00A3FF" stop-opacity="0.1"/>
</radialGradient>
<radialGradient id="paint10_radial_49_18" cx="0" cy="0" r="1" gradientUnits="userSpaceOnUse" gradientTransform="translate(36.3439 40.7768) rotate(9.61545) scale(16.602 15.8881)">
<stop stop-color="#0057FF"/>
<stop offset="1" stop-color="#00A3FF" stop-opacity="0"/>
</radialGradient>
<radialGradient id="paint11_radial_49_18" cx="0" cy="0" r="1" gradientUnits="userSpaceOnUse" gradientTransform="translate(53.8292 27.4724) rotate(125.701) scale(17.1325 9.04314)">
<stop stop-color="#2241FF"/>
<stop offset="1" stop-color="#1EA0FF" stop-opacity="0"/>
</radialGradient>
<radialGradient id="paint12_radial_49_18" cx="0" cy="0" r="1" gradientUnits="userSpaceOnUse" gradientTransform="translate(38.5619 53.6645) rotate(-115.401) scale(18.1329 41.591)">
<stop stop-color="#64E3FF"/>
<stop offset="1" stop-color="#00A3FF" stop-opacity="0.29"/>
</radialGradient>
<radialGradient id="paint13_radial_49_18" cx="0" cy="0" r="1" gradientUnits="userSpaceOnUse" gradientTransform="translate(24.4696 34.0422) rotate(50.704) scale(17.6395 17.1008)">
<stop stop-color="#3687FF"/>
<stop offset="1" stop-color="#354BFF" stop-opacity="0"/>
</radialGradient>
<radialGradient id="paint14_radial_49_18" cx="0" cy="0" r="1" gradientUnits="userSpaceOnUse" gradientTransform="translate(23.069 29.4976) rotate(46.273) scale(11.126 6.04589)">
<stop stop-color="#1858FF"/>
<stop offset="1" stop-color="#3A70FF" stop-opacity="0"/>
</radialGradient>
<radialGradient id="paint15_radial_49_18" cx="0" cy="0" r="1" gradientUnits="userSpaceOnUse" gradientTransform="translate(47.8283 55.5916) rotate(-145.131) scale(38.7516 51.8268)">
<stop stop-color="#8AFBED" stop-opacity="0"/>
<stop offset="0.671" stop-color="#00A3FF" stop-opacity="0.457"/>
<stop offset="1" stop-color="#198CF6"/>
</radialGradient>
<radialGradient id="paint16_radial_49_18" cx="0" cy="0" r="1" gradientUnits="userSpaceOnUse" gradientTransform="translate(26.7578 26.0383) rotate(50.439) scale(61.3062 49.8759)">
<stop stop-color="#35C2FF"/>
<stop offset="1" stop-color="#00A3FF" stop-opacity="0"/>
</radialGradient>
<radialGradient id="paint17_radial_49_18" cx="0" cy="0" r="1" gradientUnits="userSpaceOnUse" gradientTransform="translate(11.8337 27.6535) rotate(59.278) scale(16.3008 20.8849)">
<stop stop-color="#3B52FC"/>
<stop offset="1" stop-color="#3B52FC" stop-opacity="0"/>
</radialGradient>
<radialGradient id="paint18_radial_49_18" cx="0" cy="0" r="1" gradientUnits="userSpaceOnUse" gradientTransform="translate(50.5903 23.7309) rotate(90.1891) scale(24.2627 31.0858)">
<stop stop-color="#2A6BFF"/>
<stop offset="1" stop-color="#2A6BFF" stop-opacity="0"/>
</radialGradient>
<radialGradient id="paint19_radial_49_18" cx="0" cy="0" r="1" gradientUnits="userSpaceOnUse" gradientTransform="translate(31.979 17.9842) rotate(157.682) scale(18.4317 46.2611)">
<stop stop-color="#00A3FF"/>
<stop offset="0.944" stop-color="#00A3FF" stop-opacity="0.29"/>
</radialGradient>
<radialGradient id="paint20_radial_49_18" cx="0" cy="0" r="1" gradientUnits="userSpaceOnUse" gradientTransform="translate(25.3642 5.87329) rotate(78.816) scale(21.4673 39.7131)">
<stop stop-color="#FF7272"/>
<stop offset="0.18" stop-color="#FF72A7"/>
<stop offset="1" stop-color="#7A51FF" stop-opacity="0"/>
</radialGradient>
<radialGradient id="paint21_radial_49_18" cx="0" cy="0" r="1" gradientUnits="userSpaceOnUse" gradientTransform="translate(30.3317 3.39105) rotate(84.1933) scale(52.2364 21.5132)">
<stop stop-color="#FFBFAB"/>
<stop offset="0.365" stop-color="#FF67A8" stop-opacity="0.87"/>
<stop offset="0.724" stop-color="#6BAFFF" stop-opacity="0"/>
</radialGradient>
<radialGradient id="paint22_radial_49_18" cx="0" cy="0" r="1" gradientUnits="userSpaceOnUse" gradientTransform="translate(32.0122 28.8548) rotate(-50.305) scale(15.9221 24.1478)">
<stop stop-color="#2238FF"/>
<stop offset="1" stop-color="#0047FF" stop-opacity="0"/>
</radialGradient>
<linearGradient id="paint23_linear_49_18" x1="47.0659" y1="29.9774" x2="37.2176" y2="25.4921" gradientUnits="userSpaceOnUse">
<stop stop-color="#29EDFE"/>
<stop offset="1" stop-color="#29EDFE" stop-opacity="0"/>
</linearGradient>
<radialGradient id="paint24_radial_49_18" cx="0" cy="0" r="1" gradientUnits="userSpaceOnUse" gradientTransform="translate(32.0446 57.6068) rotate(-65.238) scale(20.9107 47.0776)">
<stop stop-color="#4DEAFF"/>
<stop offset="0.944" stop-color="#00A3FF" stop-opacity="0.1"/>
</radialGradient>
<radialGradient id="paint25_radial_49_18" cx="0" cy="0" r="1" gradientUnits="userSpaceOnUse" gradientTransform="translate(29.4405 42.8947) rotate(9.61547) scale(19.0146 18.197)">
<stop stop-color="#0057FF"/>
<stop offset="1" stop-color="#00A3FF" stop-opacity="0"/>
</radialGradient>
<radialGradient id="paint26_radial_49_18" cx="0" cy="0" r="1" gradientUnits="userSpaceOnUse" gradientTransform="translate(49.4669 27.6559) rotate(125.701) scale(19.6222 10.3573)">
<stop stop-color="#2241FF"/>
<stop offset="1" stop-color="#1EA0FF" stop-opacity="0"/>
</radialGradient>
<radialGradient id="paint27_radial_49_18" cx="0" cy="0" r="1" gradientUnits="userSpaceOnUse" gradientTransform="translate(31.9787 57.6543) rotate(-115.402) scale(20.7681 47.6352)">
<stop stop-color="#64E3FF"/>
<stop offset="1" stop-color="#00A3FF" stop-opacity="0.29"/>
</radialGradient>
<radialGradient id="paint28_radial_49_18" cx="0" cy="0" r="1" gradientUnits="userSpaceOnUse" gradientTransform="translate(15.8374 35.1812) rotate(50.7041) scale(20.2029 19.586)">
<stop stop-color="#3687FF"/>
<stop offset="1" stop-color="#354BFF" stop-opacity="0"/>
</radialGradient>
<radialGradient id="paint29_radial_49_18" cx="0" cy="0" r="1" gradientUnits="userSpaceOnUse" gradientTransform="translate(14.2368 29.9753) rotate(46.273) scale(12.7429 6.92449)">
<stop stop-color="#1858FF"/>
<stop offset="1" stop-color="#3A70FF" stop-opacity="0"/>
</radialGradient>
</defs>
</svg>
