<svg width="64" height="64" viewBox="0 0 64 64" fill="none" xmlns="http://www.w3.org/2000/svg">
<g clip-path="url(#clip0_35_58)">
<path d="M64 0H0V64H64V0Z" fill="black"/>
<path d="M31.6943 58.9248V49.6102C30.7567 49.6102 29.7987 49.5287 28.8612 49.386L27.3936 58.5783C28.8204 58.8229 30.2675 58.9248 31.6943 58.9248ZM35.9745 58.5987C37.4013 58.3745 38.8077 58.0484 40.1733 57.6L37.2994 48.7338C36.4026 49.0191 35.465 49.2433 34.5274 49.386L35.9745 58.5987ZM23.2153 57.6L26.0892 48.7541C25.1924 48.4688 24.3159 48.1019 23.4599 47.6739L19.2204 55.9694C20.5045 56.6013 21.8497 57.1516 23.2153 57.6ZM44.1478 55.9694C45.4319 55.3172 46.6548 54.5631 47.8166 53.7274L42.3134 46.2064C41.5592 46.7567 40.744 47.2662 39.8879 47.6739L44.1478 55.9694ZM15.5516 53.707L21.0548 46.186C20.3006 45.6357 19.5669 45.0242 18.8943 44.3516L12.2905 50.935C13.3096 51.9338 14.4102 52.8713 15.5516 53.707ZM51.0573 50.9758L51.1185 50.9147C52.1376 49.9159 53.0752 48.8153 53.9108 47.6739L46.3694 42.1911C45.8191 42.9452 45.1873 43.679 44.535 44.3312L44.4331 44.4331L47.6127 47.4293L51.0573 50.9758ZM9.4981 47.6535L17.0395 42.1707C16.4892 41.4166 15.9796 40.6013 15.5516 39.7656L7.23568 43.9847C7.88791 45.2688 8.64205 46.4917 9.4981 47.6535ZM56.1529 44.0051C56.8051 42.7414 57.3554 41.3962 57.8038 40.0306L48.9172 37.1771C48.6319 38.0739 48.265 38.9503 47.837 39.786L56.1529 44.0051ZM5.58472 40.0306L14.4713 37.1567C14.186 36.2599 13.9618 35.3427 13.8191 34.4051L4.586 35.8522C4.8102 37.2586 5.1567 38.665 5.58472 40.0306ZM58.8026 35.8726C59.0268 34.4663 59.1491 33.0191 59.1491 31.5924H49.814C49.814 32.5299 49.7325 33.4879 49.5898 34.4255L58.8026 35.8726ZM13.5949 31.572C13.5949 30.6344 13.6764 29.6764 13.8191 28.7389L4.586 27.2917C4.3618 28.6981 4.25988 30.1452 4.2395 31.572H13.5949ZM49.5898 28.7592L58.8229 27.3121C58.5987 25.9057 58.2726 24.4994 57.8242 23.1338L48.9376 25.9873C49.2229 26.9045 49.4471 27.8217 49.5898 28.7592ZM14.4713 25.9873C14.7567 25.0905 15.1236 24.214 15.5516 23.3784L7.23568 19.1592C6.58345 20.4229 6.03313 21.7682 5.58472 23.1338L14.4713 25.9873ZM47.8573 23.3987L56.1936 19.1796C55.5414 17.8955 54.7873 16.6726 53.9312 15.5108L46.3694 20.9936C46.9198 21.7478 47.4293 22.5631 47.8573 23.3987ZM17.0395 20.9733C17.5898 20.2191 18.2217 19.4854 18.8943 18.8127L18.9147 18.7924L12.3108 12.2089L12.2905 12.2293C11.2713 13.2484 10.3338 14.3287 9.4981 15.4905L17.0395 20.9733ZM44.535 18.8535L46.5325 16.8357L51.1185 12.2701L51.0981 12.2497C50.079 11.251 48.9987 10.3134 47.8573 9.47771L42.3541 16.9987C43.1083 17.5491 43.842 18.1605 44.4943 18.8331L44.535 18.8535ZM21.0752 16.958C21.8293 16.4077 22.6446 15.9185 23.5006 15.4905L19.2612 7.19491C17.9771 7.84714 16.7542 8.60128 15.5924 9.43695L21.0752 16.958ZM39.9491 15.5108L44.2089 7.21529C42.9248 6.56307 41.6 6.01275 40.2344 5.56434L37.3401 14.4102C38.2166 14.7159 39.093 15.0828 39.9491 15.5108ZM26.1299 14.4102C27.0268 14.1248 27.9643 13.9006 28.9019 13.758L27.4548 4.56561C26.0484 4.78982 24.6217 5.11593 23.2561 5.56434L26.1299 14.4102ZM34.5478 13.758L36.0153 4.56561C34.6089 4.34141 33.1618 4.21912 31.735 4.21912V13.5338C32.6726 13.5338 33.6306 13.6153 34.5478 13.758Z" fill="white"/>
<path d="M31.6943 50.0382V40.6828C30.8994 40.6828 30.1248 40.5809 29.3503 40.3771L26.9045 49.4064C28.4739 49.814 30.0841 50.0382 31.6943 50.0382ZM36.4841 49.4064C38.0535 48.9987 39.5414 48.3873 40.9478 47.572L36.2191 39.4802C35.5465 39.8675 34.8127 40.1732 34.0586 40.3771L36.4841 49.4064ZM22.4611 47.572L27.1898 39.4802C26.5172 39.093 25.8854 38.6038 25.3147 38.0535L25.2331 37.972L22.2573 41.0904L18.5885 44.6166L18.6497 44.6777C19.7911 45.7987 21.0752 46.7771 22.4611 47.572ZM44.7592 44.6777C45.9006 43.5363 46.8994 42.2726 47.6943 40.8866L39.521 36.1987C39.1338 36.8713 38.6446 37.4828 38.0739 38.0535L44.7592 44.6777ZM15.6943 40.8662L23.8675 36.1987C23.4803 35.5261 23.1745 34.8127 22.9707 34.0586L13.8599 36.4637C14.2675 37.9924 14.8994 39.4803 15.6943 40.8662ZM49.549 36.4841C49.9567 34.935 50.1809 33.3452 50.1809 31.7554H40.744C40.744 32.5299 40.642 33.3248 40.4382 34.079L49.549 36.4841ZM22.6854 31.735C22.6854 30.9605 22.7873 30.1656 22.9911 29.4115L13.8599 27.0064C13.4522 28.5554 13.228 30.1452 13.228 31.735H22.6854ZM40.4178 29.4318L49.549 27.0267C49.1414 25.4777 48.5096 23.9898 47.7147 22.6038L39.5414 27.2713C39.9083 27.9643 40.214 28.6777 40.4178 29.4318ZM23.8879 27.2713C24.2752 26.6191 24.744 25.9873 25.3147 25.4369L25.335 25.4166L21.9516 22.0739L18.7108 18.7516L18.6497 18.8127C17.5083 19.9338 16.5299 21.2178 15.7147 22.5834L23.8879 27.2713ZM38.0739 25.4369L41.4166 22.1146L44.8408 18.8943L44.7592 18.8127C43.6178 17.6713 42.3338 16.7134 40.9478 15.8981L36.2191 23.9898C36.8917 24.3771 37.5032 24.8459 38.0739 25.3962V25.4369ZM27.1898 23.9898C27.8624 23.6025 28.5962 23.2968 29.3503 23.093L26.9452 14.0637C25.3758 14.4713 23.8879 15.0828 22.4815 15.8981L27.1898 23.9898ZM34.0382 23.1134L36.4841 14.0841C34.935 13.6764 33.3248 13.4522 31.7147 13.4522V22.8076C32.4892 22.8076 33.2841 22.9096 34.0382 23.1134Z" fill="white"/>
</g>
<defs>
<clipPath id="clip0_35_58">
<rect width="64" height="64" fill="white"/>
</clipPath>
</defs>
</svg>
