<svg width="64" height="64" viewBox="0 0 64 64" fill="none" xmlns="http://www.w3.org/2000/svg">
<path d="M53.6235 10L34.8925 23.7902L38.3635 15.6599L53.6235 10Z" fill="#E27625"/>
<path d="M10.3765 10L28.9511 23.9153L25.6365 15.6599L10.3765 10Z" fill="#E27625"/>
<path d="M46.9003 41.9896L41.8971 49.5571L52.5915 52.4965L55.656 42.146L46.9003 41.9896Z" fill="#E27625"/>
<path d="M8.40651 42.146L11.4397 52.4965L22.1029 49.5571L17.1309 41.9896L8.40651 42.146Z" fill="#E27625"/>
<path d="M21.5401 29.1687L18.5694 33.6404L29.1388 34.1095L28.7948 22.7896L21.5401 29.1687Z" fill="#E27625"/>
<path d="M42.4912 29.1687L35.1114 22.6645L34.8925 34.1095L45.4619 33.6404L42.4912 29.1687Z" fill="#E27625"/>
<path d="M22.103 49.557L28.5134 46.4925L22.9785 42.2397L22.103 49.557Z" fill="#E27625"/>
<path d="M35.5179 46.4925L41.8971 49.557L41.0215 42.2397L35.5179 46.4925Z" fill="#E27625"/>
<path d="M41.8971 49.557L35.5179 46.4926L36.0495 50.6202L35.987 52.3714L41.8971 49.557Z" fill="#D7C1B3"/>
<path d="M22.103 49.557L28.0443 52.3714L28.013 50.6202L28.5134 46.4926L22.103 49.557Z" fill="#D7C1B3"/>
<path d="M28.1381 39.4879L22.8534 37.9556L26.6059 36.2358L28.1381 39.4879Z" fill="#2F343B"/>
<path d="M35.8619 39.4879L37.4254 36.2358L41.1778 37.9556L35.8619 39.4879Z" fill="#2F343B"/>
<path d="M22.1029 49.5571L23.041 41.9896L17.1309 42.146L22.1029 49.5571Z" fill="#CC6228"/>
<path d="M40.9902 41.9896L41.8971 49.5571L46.9003 42.146L40.9902 41.9896Z" fill="#CC6228"/>
<path d="M45.4619 33.6404L34.8925 34.1095L35.8619 39.488L37.4254 36.2358L41.1779 37.9557L45.4619 33.6404Z" fill="#CC6228"/>
<path d="M22.8534 37.9557L26.6059 36.2358L28.1381 39.488L29.1388 34.1095L18.5694 33.6404L22.8534 37.9557Z" fill="#CC6228"/>
<path d="M18.5694 33.6404L22.9785 42.2397L22.8534 37.9557L18.5694 33.6404Z" fill="#E27625"/>
<path d="M41.1779 37.9557L41.0215 42.2397L45.4619 33.6404L41.1779 37.9557Z" fill="#E27625"/>
<path d="M29.1388 34.1095L28.1381 39.488L29.389 45.8671L29.6704 37.4867L29.1388 34.1095Z" fill="#E27625"/>
<path d="M34.8925 34.1095L34.3609 37.4554L34.6111 45.8671L35.8619 39.488L34.8925 34.1095Z" fill="#E27625"/>
<path d="M35.8619 39.4879L34.6111 45.8671L35.5179 46.4925L41.0215 42.2397L41.1778 37.9557L35.8619 39.4879Z" fill="#F5841F"/>
<path d="M22.8534 37.9557L22.9785 42.2397L28.5133 46.4925L29.3889 45.8671L28.1381 39.4879L22.8534 37.9557Z" fill="#F5841F"/>
<path d="M35.987 52.3714L36.0495 50.6203L35.5492 50.2137H28.4508L28.013 50.6203L28.0443 52.3714L22.103 49.5571L24.1668 51.2457L28.3883 54.1538H35.6117L39.8332 51.2457L41.8971 49.5571L35.987 52.3714Z" fill="#C0AD9E"/>
<path d="M35.5179 46.4926L34.611 45.8672H29.3889L28.5133 46.4926L28.013 50.6203L28.4508 50.2137H35.5492L36.0495 50.6203L35.5179 46.4926Z" fill="#2F343B"/>
<path d="M54.4365 24.6971L56 17.0671L53.6235 10L35.5179 23.3212L42.4912 29.1687L52.3414 32.0456L54.499 29.5127L53.5609 28.8248L55.0619 27.4801L53.9049 26.5733L55.4059 25.4476L54.4365 24.6971Z" fill="#763E1A"/>
<path d="M8 17.0671L9.59479 24.6971L8.59414 25.4476L10.0951 26.6046L8.93811 27.4801L10.4391 28.8248L9.50098 29.5127L11.6899 32.0456L21.5401 29.1687L28.5134 23.3212L10.3765 10L8 17.0671Z" fill="#763E1A"/>
<path d="M52.3414 32.0456L42.4912 29.1687L45.4619 33.6404L41.0215 42.2397L46.9003 42.1459H55.656L52.3414 32.0456Z" fill="#F5841F"/>
<path d="M21.5401 29.1687L11.6899 32.0456L8.40651 42.1459H17.1309L22.9785 42.2397L18.5694 33.6404L21.5401 29.1687Z" fill="#F5841F"/>
<path d="M34.8925 34.1094L35.5179 23.3212L38.3635 15.6599H25.6365L28.5134 23.3212L29.1388 34.1094L29.3889 37.4866V45.8671H34.6111L34.6424 37.4866L34.8925 34.1094Z" fill="#F5841F"/>
</svg>
