<svg xmlns="http://www.w3.org/2000/svg" version="1.1" id="Layer_1" x="0" y="0" viewBox="0 0 2500 2500" style="enable-background:new 0 0 2500 2500" xml:space="preserve"><style>.st1{fill:#fff}</style><g id="Layer_x0020_1"><g id="_2187381323856"><path style="fill-rule:evenodd;clip-rule:evenodd" d="M0 0h2500v2500H0z"/><path class="st1" d="M1463 1015h-404c-17 0-31 14-31 31v404c0 17 14 31 31 31h404c17 0 31-14 31-31v-404c0-17-14-31-31-31zM996 549H592c-17 0-31 14-31 31v404c0 17 14 31 31 31h404c17 0 31-14 31-31V580c0-17-14-31-31-31zM1930 549h-404c-17 0-31 14-31 31v404c0 17 14 31 31 31h404c17 0 31-14 31-31V580c0-17-14-31-31-31zM996 1482H592c-17 0-31 14-31 31v404c0 17 14 31 31 31h404c17 0 31-14 31-31v-404c0-17-14-31-31-31zM1930 1482h-404c-17 0-31 14-31 31v404c0 17 14 31 31 31h404c17 0 31-14 31-31v-404c0-17-14-31-31-31z"/></g></g></svg>