<svg width="64" height="64" viewBox="0 0 64 64" fill="none" xmlns="http://www.w3.org/2000/svg">
<g clip-path="url(#clip0_177_2)">
<rect width="64" height="64" fill="white"/>
<path d="M27.5703 6.05891C40.2712 5.22017 51.2347 13.4278 54.5297 24.9305C54.5297 24.9904 54.5297 24.9904 54.5297 25.0503C54.5896 25.2301 54.7694 25.29 54.9491 25.3499H55.009C57.1658 25.3499 58.7234 24.9904 59.682 24.7508C59.7419 24.7508 59.8018 24.6909 59.8617 24.6909C59.9216 24.6909 59.9815 24.6909 60.0414 24.6909C60.5806 24.6909 61 25.1102 61 25.6494V30.0229C60.9401 30.3823 60.7604 30.6819 60.4608 30.8017C60.341 30.8017 60.2811 30.8616 60.1613 30.8616C59.3225 31.1012 57.8248 31.4607 55.9676 31.6404C55.9077 31.6404 55.8478 31.6404 55.7878 31.6404C55.6081 31.7003 55.4284 31.8801 55.4284 32.0598V32.1197V32.1796C55.4284 32.7787 55.4284 33.3778 55.3685 33.9769C55.3685 33.9769 55.3685 33.9769 55.3685 34.0368C55.3685 34.2764 55.5482 34.4562 55.7878 34.5161C55.8478 34.5161 55.8478 34.5161 55.9077 34.5161C57.5851 34.3963 58.7833 34.1566 59.6221 33.917C59.682 33.917 59.7419 33.8571 59.8018 33.8571C59.8617 33.8571 59.9216 33.8571 59.9815 33.8571C60.4608 33.8571 60.8802 34.2165 60.9401 34.6958V39.1891C60.9401 39.5485 60.7004 39.908 60.341 40.0278C60.2811 40.0278 60.1613 40.0877 60.1014 40.0877C59.023 40.3873 56.8662 40.8665 54.2302 40.9864H54.1703C53.9906 40.9864 53.8707 41.1062 53.7509 41.226C53.7509 41.226 53.7509 41.2859 53.691 41.2859C50.0365 51.2909 40.391 58.4201 29.128 58.4201C14.0307 58.4201 1.98881 45.6593 3.06719 30.3823C4.20548 17.322 14.6897 6.95756 27.5703 6.05891ZM29.3676 12.5292C18.5239 12.5292 9.77709 21.3359 9.77709 32.1197C9.77709 42.9035 18.5838 51.7102 29.3676 51.7102C37.1559 51.7102 43.9257 47.1571 47.041 40.5071C47.1009 40.4472 47.1009 40.3273 47.1608 40.2674V40.2075C47.1608 40.0278 47.041 39.8481 46.8613 39.7882C46.8613 39.7882 46.8613 39.7882 46.8014 39.7882H46.7415L46.5018 39.7282C40.8703 37.8111 35.5383 38.7697 33.2018 39.3688C33.2018 39.3688 33.2018 39.3688 33.1419 39.3688C33.082 39.3688 33.0221 39.3688 32.9622 39.3688C32.4829 39.3688 32.0636 39.0093 32.0036 38.59V33.7373C32.0636 33.4377 32.3032 33.1382 32.5428 33.0183C32.5428 33.0183 32.5428 33.0183 32.6027 33.0183C34.1604 32.4192 38.6536 31.2211 46.4419 33.258C46.9811 33.3778 47.5203 33.5575 48.0595 33.6174C48.1194 33.6174 48.2392 33.6774 48.2991 33.6774C48.5388 33.6774 48.7185 33.4976 48.7185 33.3179C48.7185 33.258 48.7185 33.1981 48.7185 33.1382C48.7185 32.7787 48.7784 32.4792 48.7784 32.1197C48.7784 31.94 48.7784 31.7602 48.7784 31.5805C48.7784 31.5206 48.7784 31.4607 48.7784 31.4607C48.7784 31.281 48.6586 31.1611 48.4788 31.1012H48.4189C47.8198 30.9814 47.2807 30.8017 46.6816 30.6219L46.4419 30.562C40.9901 28.6449 35.778 29.5436 33.3816 30.1427C33.2617 30.2026 33.082 30.2026 32.9622 30.2625C32.9622 30.2625 32.9622 30.2625 32.9023 30.2625C32.423 30.2625 32.0036 29.903 31.9437 29.4837V24.631C32.0036 24.3314 32.1834 24.0918 32.4829 23.972C32.5428 23.972 32.6027 23.912 32.6626 23.912C34.2802 23.3129 38.6536 22.2346 46.0825 24.1517H46.1424C46.2023 24.1517 46.2023 24.1517 46.2622 24.1517C46.5617 24.1517 46.7415 23.9121 46.7415 23.6724C46.7415 23.6125 46.7415 23.6125 46.7415 23.5526C46.7415 23.4927 46.6816 23.4328 46.6816 23.3729C43.6861 16.9026 37.0361 12.5292 29.3676 12.5292Z" fill="#393E4D"/>
</g>
<defs>
<clipPath id="clip0_177_2">
<rect width="64" height="64" fill="white"/>
</clipPath>
</defs>
</svg>
