<svg width="64" height="64" viewBox="0 0 64 64" fill="none" xmlns="http://www.w3.org/2000/svg">
<g clip-path="url(#clip0_23_19)">
<path d="M32 64C49.6731 64 64 49.6731 64 32C64 14.3269 49.6731 0 32 0C14.3269 0 0 14.3269 0 32C0 49.6731 14.3269 64 32 64Z" fill="#FF0420"/>
<path d="M22.6688 40.4992C20.7616 40.4992 19.2 40.0512 17.984 39.1552C16.7808 38.2464 16.1792 36.9408 16.1792 35.264C16.1792 34.9056 16.2176 34.4832 16.2944 33.9712C16.4992 32.8192 16.7936 31.4368 17.1776 29.8112C18.2656 25.408 21.0816 23.2064 25.6128 23.2064C26.8416 23.2064 27.9552 23.4112 28.928 23.8336C29.9008 24.2304 30.6688 24.8448 31.232 25.664C31.7952 26.4704 32.0768 27.4304 32.0768 28.544C32.0768 28.8768 32.0384 29.2992 31.9616 29.8112C31.7184 31.232 31.4368 32.6272 31.0912 33.9712C30.528 36.16 29.568 37.8112 28.1856 38.8992C26.816 39.9744 24.9728 40.4992 22.6688 40.4992ZM23.0144 37.0432C23.9104 37.0432 24.6656 36.7744 25.2928 36.2496C25.9328 35.7248 26.3936 34.9184 26.6624 33.8176C27.0336 32.3072 27.3152 31.0016 27.5072 29.8752C27.5712 29.5424 27.6096 29.1968 27.6096 28.8384C27.6096 27.3792 26.8544 26.6496 25.3312 26.6496C24.4352 26.6496 23.6672 26.9184 23.0272 27.4432C22.4 27.968 21.952 28.7744 21.6832 29.8752C21.3888 30.9504 21.1072 32.256 20.8128 33.8176C20.7488 34.1376 20.7104 34.4704 20.7104 34.8288C20.6976 36.3136 21.4784 37.0432 23.0144 37.0432Z" fill="white"/>
<path d="M33.1903 40.2688C33.0111 40.2688 32.8831 40.2176 32.7807 40.1024C32.7039 39.9744 32.6783 39.8336 32.7039 39.6672L36.0191 24.0512C36.0447 23.872 36.1343 23.7312 36.2879 23.616C36.4287 23.5008 36.5823 23.4496 36.7487 23.4496H43.1359C44.9151 23.4496 46.3359 23.8208 47.4111 24.5504C48.4991 25.2928 49.0495 26.3552 49.0495 27.7504C49.0495 28.1472 48.9983 28.5696 48.9087 29.0048C48.5119 30.848 47.7055 32.2048 46.4767 33.088C45.2735 33.9712 43.6223 34.4064 41.5231 34.4064H38.2847L37.1839 39.6672C37.1455 39.8464 37.0687 39.9872 36.9151 40.1024C36.7743 40.2176 36.6207 40.2688 36.4543 40.2688H33.1903ZM41.6895 31.0912C42.3679 31.0912 42.9439 30.912 43.4431 30.5408C43.9551 30.1696 44.2879 29.6448 44.4543 28.9536C44.5055 28.6848 44.5311 28.4416 44.5311 28.2368C44.5311 27.776 44.3903 27.4176 44.1215 27.1744C43.8527 26.9184 43.3791 26.7904 42.7263 26.7904H39.8463L38.9375 31.0912H41.6895Z" fill="white"/>
</g>
<defs>
<clipPath id="clip0_23_19">
<rect width="64" height="64" fill="white"/>
</clipPath>
</defs>
</svg>
