<svg width="64" height="64" viewBox="0 0 64 64" fill="none" xmlns="http://www.w3.org/2000/svg">
<path fill-rule="evenodd" clip-rule="evenodd" d="M19.3586 38.0525C16.98 42.196 14.6397 46.3778 12.2611 50.5213H55C52.0842 45.4187 49.2068 40.3545 46.3294 35.3286L46.2911 35.2902C42.0709 27.8857 37.8507 20.4812 33.5922 13C28.8349 21.4404 24.0776 29.7656 19.3586 38.0525ZM39.8841 34.5613C41.9558 38.206 44.0659 41.8507 46.1376 45.5338H21.0851C25.2669 38.206 29.4103 30.9933 33.6305 23.5505C35.7023 27.2719 37.8123 30.9166 39.8841 34.5613Z" fill="#0064DB"/>
<path d="M28.3745 13.1534H9C10.6113 16.0308 12.2227 18.8315 13.834 21.6705C15.4454 24.5095 17.0567 27.3102 18.6681 30.1876C21.0467 26.0441 23.3486 21.9774 25.6505 17.9107C26.5713 16.2993 27.4921 14.7264 28.3745 13.1534Z" fill="#0064DB"/>
</svg>
