<svg width="64" height="64" viewBox="0 0 64 64" fill="none" xmlns="http://www.w3.org/2000/svg">
<g clip-path="url(#clip0_49_38106)">
<path d="M51.2 0H12.8C5.73075 0 0 5.73075 0 12.8V51.2C0 58.2692 5.73075 64 12.8 64H51.2C58.2692 64 64 58.2692 64 51.2V12.8C64 5.73075 58.2692 0 51.2 0Z" fill="#FEDA03"/>
<path d="M44.1612 31.7658C46.1772 31.2419 47.9708 29.7341 47.9708 26.7023C47.9708 21.6547 43.685 20.48 38.193 20.48H16.3201V43.2102H25.5263V35.496H36.447C38.1295 35.496 39.1137 36.1626 39.1137 37.8135V43.2102H48.3201V37.5277C48.3201 34.4325 46.574 32.48 44.1612 31.7658ZM36.6057 29.369H25.5263V27.1467H36.6057C37.8121 27.1467 38.5421 27.3055 38.5421 28.2579C38.5421 29.2103 37.8121 29.369 36.6057 29.369Z" fill="black"/>
</g>
<defs>
<clipPath id="clip0_49_38106">
<rect width="64" height="64" fill="white"/>
</clipPath>
</defs>
</svg>
