<svg width="64" height="64" viewBox="0 0 64 64" fill="none" xmlns="http://www.w3.org/2000/svg">
<path d="M32.6271 7.4752C32.6015 7.5008 32.2303 7.552 31.8079 7.5904C29.2607 7.8464 26.3551 8.6912 23.8335 9.92C23.1551 10.2528 20.4799 11.8656 20.3519 12.0192C20.3135 12.0576 19.9423 12.352 19.5199 12.672C18.5855 13.3632 16.5375 15.3728 15.6159 16.512C14.1695 18.2784 12.6591 20.8896 11.8271 23.04C11.6351 23.5648 11.4559 24.0256 11.4431 24.064C11.4431 24.1024 11.3919 24.2176 11.3535 24.32C11.2255 24.6272 10.6367 27.0592 10.5599 27.5968C10.5215 27.8784 10.4447 28.2624 10.4063 28.48C10.3039 29.0176 10.2271 30.1696 10.2015 31.8208L10.1759 33.2416L9.44631 33.9968C6.23351 37.3504 4.60791 40.1152 4.60791 42.2016C4.60791 43.904 5.41431 44.7872 7.43671 45.312C8.97271 45.7088 12.1471 45.5168 14.9119 44.864C15.4111 44.7488 15.9103 44.6336 16.0383 44.608C16.8191 44.4416 20.5695 43.2 21.7599 42.7136C21.9391 42.6496 22.1951 42.56 22.3231 42.5344C22.4639 42.5088 22.6303 42.4448 22.7071 42.3808C22.7839 42.3168 23.3343 42.0608 23.9359 41.8176C24.5375 41.5744 25.4335 41.1776 25.9199 40.9472C26.4191 40.7168 26.8415 40.5248 26.8799 40.512C26.9439 40.4992 27.9935 39.9616 30.3359 38.7584C30.7967 38.528 31.1935 38.2976 31.2063 38.2336C31.2319 38.1824 31.3087 38.144 31.3855 38.144C31.4879 38.144 32.0767 37.8112 34.4575 36.416C35.3407 35.8912 36.1471 35.3792 37.7599 34.304C38.7839 33.6256 39.7311 32.9728 39.8719 32.8704C40.0127 32.7552 40.8831 32.1024 41.7919 31.424C42.7135 30.7328 43.4687 30.1568 43.4943 30.144C43.5071 30.1312 43.3151 29.696 43.0463 29.1712C42.5983 28.2752 42.5599 28.16 42.5727 27.072C42.5727 26.432 42.5983 25.8048 42.6367 25.664C42.9439 24.4352 44.1087 23.0656 45.3375 22.4896C45.7343 22.2976 46.4383 22.1056 46.9375 22.0416C49.1135 21.7856 51.3919 23.2832 52.1471 25.4848C52.2751 25.8432 52.3263 26.4192 52.3135 27.1488C52.2751 28.1216 52.2239 28.3648 51.8399 29.12C51.1103 30.5536 49.6383 31.6416 48.1663 31.8336C47.2575 31.9488 46.8735 31.9232 45.9519 31.6928C45.6575 31.616 45.5039 31.744 44.4799 32.9856C43.2639 34.4576 39.8591 37.9264 38.2847 39.3088C37.7599 39.7568 37.2735 40.192 37.1967 40.256C37.0815 40.3712 35.8399 41.408 35.0079 42.0864C34.8671 42.2016 33.9199 42.9184 32.8959 43.6864C31.8719 44.4544 30.9503 45.1456 30.8479 45.2224C30.4895 45.504 26.9567 47.8336 26.0479 48.384C24.4735 49.3568 22.7583 50.3168 21.4527 50.9824L20.1855 51.6224L20.4927 51.8656C20.6591 51.9936 20.8639 52.1344 20.9279 52.1984C22.9119 53.696 27.4431 55.5904 30.0799 56C30.3999 56.0512 30.7711 56.1152 30.9119 56.1408C32.0127 56.3712 35.7759 56.448 37.5039 56.2688C38.3231 56.192 40.3455 55.808 40.9599 55.6288C41.0623 55.5904 41.5231 55.4496 41.9839 55.3216C47.1807 53.7856 52.1343 50.0352 55.1935 45.312C55.9231 44.1984 56.8959 42.3936 57.2031 41.6C57.3055 41.3568 57.4591 40.9728 57.5487 40.768C57.7535 40.3072 58.3551 38.4256 58.4319 38.0288C58.4575 37.8624 58.5087 37.6448 58.5471 37.5296C58.5855 37.4144 58.6495 37.0816 58.7007 36.8C58.7391 36.5184 58.7903 36.2624 58.8159 36.224C58.8415 36.1856 58.9055 35.8016 58.9439 35.392C58.9951 34.9696 59.0591 34.4448 59.0847 34.24C59.1615 33.6384 59.1615 30.336 59.0847 29.6576C59.0463 29.3248 58.9823 28.8 58.9439 28.48C58.7775 27.1232 58.3679 25.4464 57.7663 23.68C57.4591 22.7712 55.7695 19.2256 55.5775 19.072C55.5263 19.0336 55.3983 18.8544 55.2959 18.6752C54.3231 16.96 51.6095 14.016 49.5615 12.4544C47.4239 10.816 44.9279 9.4976 42.3679 8.6528C41.6255 8.4096 40.8319 8.1664 40.5887 8.128C40.3455 8.0896 40.1151 8.0384 40.0767 8.0128C40.0383 7.9872 39.7823 7.9232 39.5263 7.8848C39.2575 7.8464 38.8351 7.7696 38.5791 7.7312C38.3231 7.6928 37.9903 7.6288 37.8367 7.5904C37.5295 7.5264 32.6911 7.4112 32.6271 7.4752ZM24.2559 22.4C24.3455 22.5792 24.5119 22.9248 24.6271 23.1808C24.8831 23.7824 25.6895 24.4992 26.5727 24.9216C26.9567 25.1008 27.3023 25.3056 27.3407 25.3696C27.4559 25.5616 27.1359 25.8432 26.4063 26.1888C25.5231 26.6112 24.8831 27.2768 24.4863 28.16C24.3071 28.544 24.1023 28.9024 24.0255 28.9536C23.8591 29.056 23.4239 28.8512 23.4239 28.672C23.4239 28.3648 22.8607 27.3792 22.4383 26.9696C22.0415 26.56 21.1711 26.0352 20.9919 26.0736C20.9535 26.0864 20.7871 25.984 20.6207 25.8688C20.1855 25.536 20.3391 25.2672 21.1839 24.8832C22.0927 24.4864 22.9247 23.6288 23.2959 22.72C23.6159 21.9264 23.9359 21.8112 24.2559 22.4ZM46.9119 41.3952C47.1935 42.0608 47.7183 42.5984 48.3967 42.9568C48.7423 43.1232 49.0239 43.328 49.0239 43.4048C49.0239 43.4688 48.7807 43.6352 48.4863 43.7632C47.7695 44.0704 47.4367 44.416 47.0271 45.1968C46.8479 45.5552 46.6431 45.824 46.5535 45.7856C46.4639 45.76 46.2975 45.5168 46.1695 45.2352C45.8367 44.544 45.4783 44.1728 44.7999 43.8528C44.4799 43.6992 44.2239 43.4944 44.2239 43.4048C44.2239 43.3024 44.4799 43.0848 44.7871 42.9184C45.5295 42.5344 45.7343 42.3424 46.0287 41.7536C46.5151 40.8064 46.6431 40.7424 46.9119 41.3952Z" fill="#1764F4"/>
</svg>
