<svg width="64" height="64" viewBox="0 0 64 64" fill="none" xmlns="http://www.w3.org/2000/svg">
<path d="M51.7994 31.4483C53.093 31.4483 54.2836 30.859 55.3721 29.7482C55.5886 30.1383 55.6946 30.582 55.6781 31.0299C55.6591 31.5295 55.5557 32.0219 55.3721 32.4854L55.4408 32.5893C57.4807 32.4854 58.6722 31.897 59.8637 30.961C60 31.8289 60 32.2144 60 33.2534C60 37.6926 56.087 41.9525 50.913 41.9525C45.8132 41.9525 41.8632 37.7239 41.8632 32.8369H41.3188C40.9784 33.7728 40.8421 34.7778 40.9784 36.1294C35.2963 38.4521 33.7655 42.1603 33.7655 45.7297H30.3309C30.1497 43.8079 30.3226 41.8686 30.8409 40.0116C31.2832 38.4521 32.1001 36.4411 33.6309 34.8817L33.1887 34.3963C31.1488 36.0605 30.8066 36.6838 29.0374 39.0406C27.5752 39.3532 26.3484 40.2192 24.2742 40.2192C22.9472 40.2192 21.5527 40.0116 19.3069 38.9367C19.9559 37.7927 20.3955 36.7537 20.4975 34.8477H19.8168C18.4566 40.497 13.0805 41.432 10.767 41.8486C8.72703 42.1952 8.01119 43.7546 8.01119 45.2792C8.00804 45.4301 8.01922 45.581 8.04457 45.7297H6.102C6.03389 45.2246 5.99981 44.7152 6 44.2053C6 43.0964 6.06769 41.9865 6.5786 41.0514C8.42011 37.8948 9.95007 36.7159 9.95007 34.2924C9.95007 31.7968 8.14657 30.1364 8.04457 30.0296C9.09978 29.853 9.47439 28.814 10.1884 27.7051C11.7536 25.2437 14.373 24.8629 15.7342 24.8629C17.0611 24.8629 17.8437 25.0359 19.1706 25.0359C25.2608 25.0359 28.3235 18 35.7404 18C40.4361 18 43.6684 21.4665 44.1441 25.934L44.2462 25.9691C44.859 25.2758 45.9152 24.3397 47.1382 23.9241C47.1382 24.0979 47.1048 24.3019 47.1048 24.5136C47.1048 27.843 47.9894 31.4483 51.7994 31.4483ZM19.8168 45.7269H16.7208C15.6665 44.722 14.9859 43.1974 14.8153 42.3265C16.7208 41.4954 17.572 40.871 18.6264 39.831L19.2392 40.3166C18.8521 41.0014 18.6523 41.7792 18.6607 42.5693C18.6607 43.3353 18.6607 43.7859 19.8168 45.7269ZM38.4286 45.7269H35.6384C35.6384 41.9147 36.727 40.5631 38.2923 39.0377L38.7688 39.4155C38.1198 40.871 38.054 41.876 38.054 42.847C38.054 44.0985 38.1903 44.9296 38.4286 45.7269Z" fill="url(#paint0_radial_49_18)"/>
<defs>
<radialGradient id="paint0_radial_49_18" cx="0" cy="0" r="1" gradientUnits="userSpaceOnUse" gradientTransform="translate(6 18) rotate(27.1811) scale(60.7037 49.3348)">
<stop stop-color="#FED681"/>
<stop offset="1" stop-color="#F25E40"/>
</radialGradient>
</defs>
</svg>
