<svg viewBox="0 0 134 134" xmlns="http://www.w3.org/2000/svg" xml:space="preserve" style="fill-rule:evenodd;clip-rule:evenodd;stroke-linejoin:round;stroke-miterlimit:2"><path d="M18.75 10.257v82.259a10.179 10.179 0 0 0 1.023 4.438 10.28 10.28 0 0 0 2.862 3.562l39.175 31.13a7.821 7.821 0 0 0 4.857 1.687 7.82 7.82 0 0 0 4.856-1.687l39.175-31.13a10.257 10.257 0 0 0 2.862-3.562 10.168 10.168 0 0 0 1.023-4.438V10.257c0-2.721-1.091-5.329-3.034-7.253A10.416 10.416 0 0 0 104.223 0H29.11a10.413 10.413 0 0 0-7.325 3.004 10.206 10.206 0 0 0-3.035 7.253Z" style="fill:#004de5"/><path d="M94.602 47.528V29.599a8.971 8.971 0 0 0-2.62-6.338 8.926 8.926 0 0 0-6.322-2.626H47.657a8.929 8.929 0 0 0-6.323 2.626 8.974 8.974 0 0 0-2.619 6.338V81.62a8.967 8.967 0 0 0 3.354 6.992L55.906 99.75a1.112 1.112 0 0 0 1.187.14 1.12 1.12 0 0 0 .635-1.014V62.095a1.118 1.118 0 0 1 1.118-1.121h10.059c1.779 0 3.485.708 4.742 1.969a6.73 6.73 0 0 1 1.964 4.754v31.179a1.117 1.117 0 0 0 1.816.874l13.838-11.138a8.973 8.973 0 0 0 3.353-6.992V65.456a8.973 8.973 0 0 0-2.619-6.338 8.926 8.926 0 0 0-6.322-2.626 8.926 8.926 0 0 0 6.311-2.632 8.972 8.972 0 0 0 2.614-6.332ZM68.894 52.01h-10.06a1.117 1.117 0 0 1-1.117-1.121V30.72a1.117 1.117 0 0 1 1.117-1.121h15.648A1.118 1.118 0 0 1 75.6 30.72v14.567a6.727 6.727 0 0 1-1.964 4.753 6.7 6.7 0 0 1-4.742 1.97Z" style="fill:#fff;fill-rule:nonzero"/></svg>