<svg width="260" height="260" fill="none" xmlns="http://www.w3.org/2000/svg"><g clip-path="url(#a)"><path d="M27.54 115.502 7.897 95.858l12.811-12.812 19.644 19.644-12.812 12.812Zm50.378-50.361L58.275 45.497 45.463 58.309l19.643 19.643 12.812-12.811Zm37.567-37.567L95.841 7.931 83.029 20.742l19.644 19.644 12.812-12.812ZM255.92 139.83 139.813 255.937c-5.417 5.417-14.226 5.417-19.643 0L4.063 139.83c-5.417-5.417-5.417-14.226 0-19.643l6.406-6.406 17.071 17.071 28.18-28.179-17.072-17.071 9.387-9.388 17.072 17.072 28.178-28.18-17.07-17.07 9.387-9.388 17.071 17.071 28.179-28.179-17.071-17.07 6.406-6.407c5.417-5.417 14.226-5.417 19.643 0L255.937 120.17c5.417 5.417 5.417 14.226 0 19.643l-.017.017Zm-85.594 9.337c0-7.531-1.959-13.647-5.843-18.349-3.902-4.685-10.052-8.434-18.468-11.245a162.588 162.588 0 0 0-6.372-1.976c-2.147-.613-4.072-1.329-5.793-2.164-1.703-.834-3.083-1.822-4.14-2.964-1.056-1.141-1.584-2.59-1.584-4.344 0-2.539 1.056-4.6 3.152-6.185 2.112-1.584 4.821-2.368 8.16-2.368 2.624 0 5.35.545 8.161 1.636 2.811 1.09 5.605 2.777 8.416 5.06l10.257-20.121a68.251 68.251 0 0 0-15.385-5.98c-5.349-1.363-10.477-2.044-15.384-2.044-5.264 0-10.018.783-14.26 2.368-4.259 1.584-7.837 3.799-10.784 6.644-2.931 2.845-5.214 6.27-6.832 10.256-1.619 3.987-2.436 8.434-2.436 13.34 0 4.907.766 8.962 2.3 12.165 1.533 3.203 3.543 5.843 6.048 7.956a30.85 30.85 0 0 0 8.552 5.06 141.55 141.55 0 0 0 9.796 3.492c2.812.971 5.197 1.84 7.173 2.624s3.578 1.636 4.804 2.556c1.227.92 2.113 1.925 2.624 3.032.528 1.09.784 2.385.784 3.885 0 2.453-1.04 4.651-3.084 6.576-2.061 1.925-5.196 2.896-9.404 2.896-3.68 0-7.411-.835-11.177-2.504-3.765-1.67-7.581-4.208-11.431-7.633l-11.04 20.768c10.699 7.445 22.301 11.176 34.84 11.176 6.048 0 11.466-.817 16.236-2.436 4.771-1.619 8.808-3.901 12.097-6.832 3.288-2.93 5.792-6.457 7.496-10.58 1.704-4.123 2.555-8.723 2.555-13.8l-.034.035Z" fill="#30B396"/></g><defs><clipPath id="a"><path fill="#fff" d="M0 0h260v260H0z"/></clipPath></defs></svg>