<svg width="64" height="64" viewBox="0 0 64 64" fill="none" xmlns="http://www.w3.org/2000/svg">
<g clip-path="url(#clip0_49_18)">
<path d="M2 31.9995C2 48.5682 15.4311 61.9992 31.9995 61.9992C48.5682 61.9992 62 48.5678 62 31.9995C62 15.4311 48.5682 2 31.9995 2C15.4311 2 2 15.4311 2 31.9995Z" fill="#0C0C4F" stroke="url(#paint0_linear_49_18)" stroke-width="4"/>
<path fill-rule="evenodd" clip-rule="evenodd" d="M18.4237 24.7484L19.1835 22.4011C19.3379 21.9237 19.7147 21.5522 20.1939 21.4057L22.5527 20.6803C22.8792 20.5806 22.8819 20.1199 22.558 20.0149L20.2098 19.2551C19.7333 19.1007 19.3617 18.7239 19.2144 18.2447L18.4899 15.8859C18.3902 15.5603 17.9295 15.5567 17.8245 15.8815L17.0647 18.2288C16.9103 18.7053 16.5335 19.0769 16.0543 19.2243L13.6955 19.9487C13.369 20.0493 13.3654 20.5091 13.6902 20.6141L16.0384 21.3739C16.5149 21.5283 16.8865 21.906 17.0338 22.3852L17.7583 24.7431C17.858 25.0696 18.3187 25.0732 18.4237 24.7484Z" fill="#FAFAFA"/>
<path fill-rule="evenodd" clip-rule="evenodd" d="M55.707 23.3822C54.7345 22.2948 53.217 21.6826 51.7415 21.4315C50.2544 21.1904 48.6948 21.2127 47.2267 21.4736C44.256 21.9761 41.5571 23.2062 39.2031 24.7237C37.9807 25.4684 36.9383 26.3301 35.8583 27.2078C35.3379 27.6516 34.8635 28.1243 34.3694 28.5902L33.0193 29.9335C31.5523 31.4669 30.1064 32.8636 28.7074 34.0212C27.3027 35.1735 25.9895 36.0487 24.6953 36.6599C23.4019 37.2742 22.0179 37.6355 20.2141 37.6933C18.4261 37.7564 16.3107 37.4337 14.0479 36.9011C11.7729 36.3708 9.38401 35.6149 6.71444 34.9645C7.64592 37.5486 9.04859 39.8322 10.8495 41.9199C12.6715 43.9712 14.9466 45.8405 17.8694 47.0701C20.7499 48.327 24.3698 48.7782 27.7545 48.0975C31.1481 47.4441 34.1262 45.874 36.5335 44.0576C38.9469 42.223 40.8995 40.133 42.5456 37.9602C42.9999 37.3599 43.2403 37.024 43.5691 36.5548L44.478 35.2085C45.1096 34.3757 45.6847 33.4276 46.3096 32.6025C47.5353 30.8745 48.7439 29.1485 50.148 27.5583C50.8548 26.7518 51.6001 25.9803 52.4799 25.2389C52.9186 24.8771 53.3927 24.5229 53.9179 24.2039C54.4509 23.8598 55.0139 23.5904 55.707 23.3822Z" fill="url(#paint1_linear_49_18)"/>
<path fill-rule="evenodd" clip-rule="evenodd" d="M55.707 23.3821C54.6625 20.746 52.7203 18.527 50.1134 16.8896C47.5225 15.2702 43.924 14.4437 40.3579 15.1482C38.5964 15.4889 36.8896 16.1449 35.3919 17.0184C33.9009 17.8884 32.5649 18.9358 31.4083 20.0594C30.8309 20.6231 30.3067 21.2111 29.7861 21.8024L28.4365 23.523L26.3522 26.2927C23.6949 29.8562 20.8334 34.0324 16.1375 35.2699C11.5275 36.4847 9.52809 35.4088 6.71444 34.9643C7.22892 36.2926 7.86617 37.5825 8.73009 38.7172C9.57792 39.875 10.5794 40.9622 11.8244 41.8945C12.4536 42.3422 13.1179 42.784 13.8556 43.1588C14.5901 43.5208 15.3821 43.8395 16.2275 44.0791C17.909 44.54 19.8022 44.7017 21.6352 44.4535C23.469 44.2088 25.2219 43.6279 26.7541 42.8561C28.2976 42.0913 29.6421 41.1601 30.8427 40.1776C33.2293 38.1956 35.0856 36.0058 36.6537 33.7922C37.4424 32.6855 38.1583 31.5579 38.8205 30.4299L39.5998 29.0871C39.8381 28.6946 40.079 28.2996 40.3236 27.9318C41.3113 26.4541 42.2771 25.2691 43.4503 24.3797C44.607 23.4673 46.218 22.7932 48.3706 22.6366C50.5143 22.4782 52.9891 22.7709 55.707 23.3821Z" fill="#FAFAFA"/>
<path fill-rule="evenodd" clip-rule="evenodd" d="M44.1095 45.2846C44.1095 47.2209 45.68 48.791 47.616 48.791C49.5523 48.791 51.1205 47.2209 51.1205 45.2846C51.1205 43.3486 49.5523 41.7781 47.616 41.7781C45.68 41.7781 44.1095 43.3486 44.1095 45.2846Z" fill="url(#paint2_linear_49_18)"/>
</g>
<defs>
<linearGradient id="paint0_linear_49_18" x1="59.4675" y1="17" x2="3.60063" y2="27.3663" gradientUnits="userSpaceOnUse">
<stop stop-color="#EC796B"/>
<stop offset="1" stop-color="#E175B1"/>
</linearGradient>
<linearGradient id="paint1_linear_49_18" x1="55.4452" y1="22.4573" x2="12.3247" y2="46.4164" gradientUnits="userSpaceOnUse">
<stop stop-color="#EC796B"/>
<stop offset="1" stop-color="#E175B1"/>
</linearGradient>
<linearGradient id="paint2_linear_49_18" x1="51.1182" y1="42.8249" x2="44.1048" y2="43.5668" gradientUnits="userSpaceOnUse">
<stop stop-color="#EC796B"/>
<stop offset="1" stop-color="#E175B1"/>
</linearGradient>
<clipPath id="clip0_49_18">
<rect width="64" height="64" fill="white"/>
</clipPath>
</defs>
</svg>
