<svg viewBox="0 0 500 500" xmlns="http://www.w3.org/2000/svg" xml:space="preserve" style="fill-rule:evenodd;clip-rule:evenodd;stroke-linejoin:round;stroke-miterlimit:2"><path d="M0 0h500v500H0z"/><path d="M298.125 27.083 311.042 57.5c25.416 59.167 72.5 106.667 132.083 132.083l30.417 12.917c7.916 3.333 14.166 8.333 19.166 14.167-15-107.917-100.416-193.334-208.333-208.334a49.938 49.938 0 0 1 13.75 18.75Zm-271.25 175 30.417-12.916c59.166-25.417 106.666-72.5 132.083-132.084l12.917-30.416c2.916-7.5 7.916-14.167 14.166-19.167C108.542 22.5 23.125 107.917 8.125 215.833a49.943 49.943 0 0 1 18.75-13.75Zm446.25 96.25-30.417 12.917c-59.166 25.417-106.666 72.5-132.083 132.083l-12.917 30c-2.916 7.5-7.916 14.167-14.166 19.167 107.916-15 193.333-100.417 208.333-208.333-4.583 6.25-11.25 11.25-18.75 14.166Zm-271.25 175-12.917-30c-25.416-59.166-72.5-106.666-132.083-132.083l-30.417-12.917c-7.5-2.916-14.166-7.916-19.166-14.166 15 107.916 100.416 193.333 208.333 208.333-5.833-5-10.417-11.667-13.75-19.167Z" style="fill:#999;fill-rule:nonzero"/><path d="m140.208 226.667 15-6.25c29.167-12.5 52.5-35.834 65-65l6.25-15c8.75-20.834 38.334-20.834 47.5 0l6.25 15c12.5 29.166 35.834 52.5 65 65l15 6.25c20.834 8.75 20.834 38.333 0 47.5l-15 6.25c-29.166 12.5-52.5 35.833-65 65l-6.25 15c-8.75 20.833-38.333 20.833-47.5 0l-6.25-15c-12.5-29.167-35.833-52.5-65-65l-15-6.25c-20.833-9.167-20.833-38.75 0-47.5Z" style="fill:#fff;fill-rule:nonzero"/></svg>