<svg width="64" height="64" viewBox="0 0 64 64" fill="none" xmlns="http://www.w3.org/2000/svg">
<g clip-path="url(#clip0_163_2)">
<path d="M54.5273 54.8022C51.5463 57.7838 47.997 60.1341 44.0905 61.7133C40.184 63.2923 36.0004 64.068 31.7884 63.994C27.6029 64.0764 23.4446 63.3031 19.5675 61.7213C15.6902 60.1396 12.1758 57.7826 9.23868 54.7943C6.2324 51.8621 3.86129 48.341 2.27312 44.4506C0.684958 40.5602 -0.0862247 36.3837 0.0076477 32.1816C0.0076477 22.9872 3.0899 15.3259 9.2544 9.19799C12.1934 6.21058 15.7095 3.85471 19.588 2.2743C23.4664 0.693896 27.6259 -0.0778544 31.8121 0.00619681C36.0231 -0.065261 40.2055 0.712355 44.1105 2.2928C48.0155 3.87323 51.5633 6.22422 54.5431 9.20595C60.8441 15.3391 63.9946 23.0029 63.9946 32.1974C64.0742 36.4178 63.2732 40.6084 61.6431 44.5009C60.0128 48.3934 57.5891 51.9021 54.5273 54.8022Z" fill="#301748"/>
<path d="M30.5394 52.2441C29.4809 51.2637 28.4907 50.2112 27.576 49.094C25.393 46.2715 20.5297 41.3083 19.3213 40.0708C17.9285 38.6447 16.5225 37.2219 15.1429 35.7692C14.942 35.5608 14.616 35.3192 14.8136 34.9685C15.0112 34.6177 15.3931 34.6706 15.729 34.6906C15.8792 34.7003 16.0271 34.7338 16.1669 34.7898C17.1547 35.1825 18.1425 35.5806 19.1303 35.9843C21.1059 36.785 23.0387 37.6155 25.0176 38.3667C26.2096 38.82 26.7133 38.3667 26.4894 37.1126C26.3017 36.0637 26.0383 35.0346 25.7584 34.0023C25.6944 33.7754 25.6802 33.5371 25.7166 33.3041C25.7531 33.0711 25.8394 32.8487 25.9696 32.6525C26.0997 32.4562 26.2708 32.2907 26.4708 32.1672C26.6708 32.0438 26.8951 31.9654 27.1282 31.9376C27.5365 31.878 27.9481 31.8681 28.3564 31.835C28.7647 31.8019 29.1828 31.7026 29.3442 31.2262C29.4221 31.016 29.4309 30.7862 29.3691 30.5706C29.3075 30.355 29.1788 30.1649 29.0018 30.0284C27.6583 28.728 26.3314 27.4143 25.0011 26.0974C21.6689 22.7885 18.3389 19.4796 15.0112 16.1707C13.0355 14.2185 11.0687 12.2674 9.11068 10.3174C8.91643 10.1255 8.71229 9.95668 8.86704 9.6556C9.02181 9.35444 9.28193 9.39092 9.54862 9.44386C10.3652 9.60925 10.9546 10.1982 11.6 10.6417C13.3221 11.8328 15.1231 12.8983 16.8682 14.0266C18.0865 14.8042 19.3246 15.552 20.5396 16.3428C21.7546 17.1336 22.907 17.9145 24.1022 18.6789C25.821 19.7741 27.5563 20.8396 29.2718 21.9381C31.1222 23.1227 32.9595 24.3271 34.7969 25.5315C35.1261 25.75 35.4323 25.8624 35.7847 25.5514C36.137 25.2404 36.0843 24.9294 35.9262 24.5091C35.5575 23.5164 34.8693 22.7157 34.6092 21.6999C34.5169 21.369 34.4445 21.0381 34.7738 20.78C34.9058 20.6731 35.0682 20.6113 35.2377 20.6035C35.407 20.5959 35.5744 20.6426 35.7155 20.737C36.9637 21.331 38.1784 21.9938 39.354 22.7223C40.7862 23.6251 42.2779 24.4287 43.8188 25.1279C46.3245 26.3257 48.7183 27.7287 51.089 29.1515C52.3968 29.9877 53.5243 31.0791 54.4047 32.3611C55.0948 33.3121 55.6706 34.3417 56.1202 35.4284C56.7604 37.0035 57.1846 38.6587 57.3813 40.3487C57.7699 43.3664 56.6734 47.2444 55.274 49.3223C54.0781 51.2111 52.5227 52.8438 50.6971 54.1268C49.4661 54.9691 48.1398 55.6611 46.746 56.1883C45.2873 56.7641 43.7826 56.8501 42.1658 56.9096C42.0343 56.9178 41.9023 56.9178 41.7707 56.9096C38.4386 56.7077 35.159 56.2313 30.5394 52.2441ZM52.1097 42.1653C52.1367 40.8493 51.9004 39.5413 51.4149 38.3188C50.9293 37.0963 50.2044 35.9843 49.2832 35.0486C48.3619 34.1129 47.2631 33.3727 46.0517 32.8719C44.8405 32.3709 43.5415 32.1196 42.2317 32.1328C36.9436 32.1626 32.5907 36.5005 32.5743 42.2381C32.5743 46.93 37.1215 52.1647 42.2877 51.8338C47.6251 52.0522 52.0768 47.208 52.1097 42.1653Z" fill="url(#paint0_linear_163_2)"/>
<path d="M18.7946 29.3898C18.7909 29.7921 18.9438 30.1798 19.2206 30.4703C19.4975 30.7609 19.8763 30.9312 20.2764 30.945C20.4774 30.9433 20.676 30.9001 20.8598 30.8183C21.0437 30.7364 21.2089 30.6175 21.3453 30.469C21.4817 30.3205 21.5863 30.1455 21.6528 29.9547C21.7192 29.764 21.7461 29.5616 21.7317 29.3601C21.715 28.957 21.5459 28.5754 21.259 28.2932C20.972 28.011 20.5889 27.8493 20.1874 27.8413C19.8014 27.8693 19.4411 28.046 19.1816 28.3344C18.922 28.623 18.7834 29.001 18.7946 29.3898Z" fill="url(#paint1_linear_163_2)"/>
<path d="M25.0208 10.4661C25.9132 10.4661 26.4433 9.89038 26.44 8.97381C26.4167 8.59676 26.2548 8.24183 25.986 7.97774C25.7171 7.71367 25.3603 7.55926 24.9846 7.54442C24.3261 7.54442 23.4206 8.38488 23.4141 9.01688C23.437 9.42273 23.6189 9.80307 23.9199 10.0746C24.221 10.3462 24.6168 10.487 25.0208 10.4661Z" fill="url(#paint2_linear_163_2)"/>
<path d="M8.91676 23.7248C8.92576 23.5431 8.89672 23.3616 8.83153 23.1919C8.76632 23.0222 8.66641 22.868 8.53824 22.7396C8.41008 22.6111 8.25651 22.5111 8.08747 22.446C7.91843 22.3808 7.73767 22.3521 7.55689 22.3616C7.19656 22.3945 6.86009 22.5568 6.60914 22.8187C6.35817 23.0806 6.20953 23.4246 6.19043 23.7877C6.21613 24.1387 6.36976 24.4678 6.62189 24.712C6.87402 24.9562 7.20694 25.0983 7.55689 25.1112C7.73881 25.1174 7.92003 25.0856 8.0891 25.0179C8.25818 24.9501 8.41144 24.8478 8.53922 24.7175C8.667 24.5873 8.76652 24.4318 8.8315 24.2609C8.89649 24.0901 8.92551 23.9076 8.91676 23.7248Z" fill="url(#paint3_linear_163_2)"/>
<path d="M42.2876 51.8171C47.625 52.052 52.0767 47.2078 52.1097 42.1651C52.1366 40.8492 51.9003 39.5411 51.4148 38.3186C50.9293 37.0961 50.2043 35.9841 49.2831 35.0484C48.3619 34.1128 47.263 33.3725 46.0517 32.8717C44.8404 32.3708 43.5414 32.1195 42.2317 32.1326C36.9436 32.1624 32.5907 36.5003 32.5743 42.2379C32.5578 46.9299 37.1215 52.148 42.2876 51.8171Z" fill="url(#paint4_linear_163_2)"/>
</g>
<defs>
<linearGradient id="paint0_linear_163_2" x1="57.4603" y1="33.1685" x2="8.80777" y2="33.1685" gradientUnits="userSpaceOnUse">
<stop stop-color="#E2107B"/>
<stop offset="1" stop-color="#301748"/>
</linearGradient>
<linearGradient id="paint1_linear_163_2" x1="21.7317" y1="29.3898" x2="18.7814" y2="29.3898" gradientUnits="userSpaceOnUse">
<stop stop-color="#E2107B"/>
<stop offset="1" stop-color="#0D1126"/>
</linearGradient>
<linearGradient id="paint2_linear_163_2" x1="26.44" y1="9.00691" x2="23.4174" y2="9.00691" gradientUnits="userSpaceOnUse">
<stop stop-color="#E2107B"/>
<stop offset="1" stop-color="#0D1126"/>
</linearGradient>
<linearGradient id="paint3_linear_163_2" x1="8.92335" y1="23.7315" x2="6.19701" y2="23.7315" gradientUnits="userSpaceOnUse">
<stop stop-color="#E2107B"/>
<stop offset="1" stop-color="#0D1126"/>
</linearGradient>
<linearGradient id="paint4_linear_163_2" x1="57.3713" y1="47.8299" x2="33.0406" y2="38.4963" gradientUnits="userSpaceOnUse">
<stop stop-color="#301748"/>
<stop offset="1" stop-color="#E2107B"/>
</linearGradient>
<clipPath id="clip0_163_2">
<rect width="64" height="64" fill="white"/>
</clipPath>
</defs>
</svg>
