<svg xmlns="http://www.w3.org/2000/svg" viewBox="0 0 104.5 65" style="enable-background:new 0 0 104.5 65" xml:space="preserve"><defs><path id="a" d="M0 0h104.5v65H0z"/></defs><clipPath id="b"><use href="#a" style="overflow:visible"/></clipPath><g style="clip-path:url(#b)"><linearGradient id="c" gradientUnits="userSpaceOnUse" x1="103.32" y1="957.369" x2="154.567" y2="935.257" gradientTransform="matrix(1 0 0 -1 -106 978.241)"><stop offset="0" style="stop-color:#f213a4"/><stop offset=".152" style="stop-color:#e011a7"/><stop offset=".455" style="stop-color:#b20daf"/><stop offset=".879" style="stop-color:#6806bb"/><stop offset="1" style="stop-color:#5204bf"/></linearGradient><path d="M.3 5.5C-.8 2.8 1.2 0 4 0h17.6c1.7 0 3.1 1 3.7 2.5l14 35c.4.9.4 2 0 3l-8.8 22c-1.3 3.4-6.1 3.4-7.5 0L.3 5.5z" style="fill:url(#c)"/><linearGradient id="d" gradientUnits="userSpaceOnUse" x1="137.05" y1="956.165" x2="184.813" y2="937.126" gradientTransform="matrix(1 0 0 -1 -106 978.241)"><stop offset="0" style="stop-color:#f213a4"/><stop offset=".152" style="stop-color:#e011a7"/><stop offset=".455" style="stop-color:#b20daf"/><stop offset=".879" style="stop-color:#6806bb"/><stop offset="1" style="stop-color:#5204bf"/></linearGradient><path d="M34.3 5.4c-.9-2.6 1-5.4 3.8-5.4h15.4c1.7 0 3.2 1.1 3.8 2.6l12.8 35c.3.9.3 1.8 0 2.7l-7.7 21c-1.3 3.5-6.3 3.5-7.6 0L34.3 5.4z" style="fill:url(#d)"/><linearGradient id="e" gradientUnits="userSpaceOnUse" x1="168.103" y1="957.369" x2="219.349" y2="935.257" gradientTransform="matrix(1 0 0 -1 -106 978.241)"><stop offset="0" style="stop-color:#f213a4"/><stop offset=".152" style="stop-color:#e011a7"/><stop offset=".455" style="stop-color:#b20daf"/><stop offset=".879" style="stop-color:#6806bb"/><stop offset="1" style="stop-color:#5204bf"/></linearGradient><path d="M65.1 5.5C64 2.8 66 0 68.8 0h17.6c1.7 0 3.1 1 3.7 2.5l14 35c.4.9.4 2 0 3l-8.8 22c-1.3 3.4-6.1 3.4-7.5 0l-22.7-57z" style="fill:url(#e)"/></g></svg>