<svg width="39" height="40" fill="none" xmlns="http://www.w3.org/2000/svg"><path d="M15.405.225a3.802 3.802 0 0 0 0 7.603c5.88 0 10.648 4.782 10.648 10.678a6.41 6.41 0 0 1-4.072 5.973 1.51 1.51 0 0 1-1.318-.161 7.08 7.08 0 0 0 8.307-.232c5.041-3.869 5.99-11.093 2.116-16.135C27.476 3.255 21.794.225 15.405.225Z" fill="#FBFF9C"/><path d="M24.656 25.783a7.281 7.281 0 0 1-4.12-1.277.227.227 0 0 1-.06-.311.223.223 0 0 1 .307-.064 1.309 1.309 0 0 0 1.255.086 6.176 6.176 0 0 0 3.786-5.708c0-5.764-4.678-10.453-10.423-10.457a4 4 0 0 1-2.846-1.18 4 4 0 0 1-1.18-2.846A4.03 4.03 0 0 1 15.4 0c6.258 0 12.041 2.85 15.861 7.817 3.94 5.13 2.97 12.509-2.157 16.449a7.307 7.307 0 0 1-4.453 1.517h.004Zm-2.776-1.038a6.84 6.84 0 0 0 6.956-.835h.007c4.929-3.794 5.858-10.887 2.071-15.82-3.738-4.854-9.39-7.64-15.51-7.64a3.585 3.585 0 0 0-3.58 3.58 3.585 3.585 0 0 0 3.58 3.58c5.997 0 10.873 4.892 10.873 10.903a6.622 6.622 0 0 1-4.224 6.184 1.336 1.336 0 0 1-.176.048h.003Z" fill="#000"/><path d="M23.012 39.775a3.802 3.802 0 0 0 0-7.603c-5.88 0-10.649-4.783-10.649-10.678a6.41 6.41 0 0 1 4.072-5.974 1.51 1.51 0 0 1 1.318.161 7.08 7.08 0 0 0-8.307.233C4.405 19.782 3.457 27.007 7.33 32.048c3.614 4.7 9.296 7.73 15.685 7.73l-.003-.003Z" fill="#ABE2FF"/><path d="M23.012 40c-6.259 0-12.042-2.85-15.862-7.816C3.21 27.049 4.18 19.67 9.307 15.73a7.294 7.294 0 0 1 8.573-.24.227.227 0 0 1 .06.312.223.223 0 0 1-.307.063 1.309 1.309 0 0 0-1.255-.086 6.176 6.176 0 0 0-3.786 5.708c0 5.764 4.678 10.453 10.423 10.457a4 4 0 0 1 2.847 1.18 4 4 0 0 1 1.18 2.846 4.03 4.03 0 0 1-4.027 4.026l-.003.004Zm-15.51-8.094h.004c3.734 4.862 9.386 7.645 15.506 7.645a3.585 3.585 0 0 0 3.58-3.58 3.585 3.585 0 0 0-3.58-3.581c-5.997 0-10.873-4.892-10.873-10.903a6.622 6.622 0 0 1 4.22-6.184c.057-.018.117-.037.177-.048a6.84 6.84 0 0 0-6.955.835h-.008c-4.929 3.794-5.857 10.884-2.07 15.816Z" fill="#000"/><path d="m31.105 7.974-.015-.023c-.768-1-.577-2.43.42-3.198a2.284 2.284 0 0 1 3.198.42c5.67 7.385 4.281 17.973-3.105 23.644-.49.348-.678.434-.944.644a1.522 1.522 0 0 1 1.91 2.367c-4.85 3.921-11.958 3.165-15.88-1.686a7.06 7.06 0 0 1-.846-7.55 4.563 4.563 0 0 1 4.12-2.596 3.041 3.041 0 0 1 3.041 3.042 1.518 1.518 0 0 1-1.524 1.52 1.51 1.51 0 0 1-.824-.243 7.08 7.08 0 0 0 8.307-.233c5.041-3.869 5.989-11.093 2.116-16.134" fill="#FBFF9C"/><path d="M34.888 5.041a2.48 2.48 0 0 0-1.66-.959 2.498 2.498 0 0 0-1.853.499 2.481 2.481 0 0 0-.959 1.659c-.086.663.09 1.322.498 1.854l.008.01c3.779 4.934 2.846 12.016-2.079 15.806h-.008a6.833 6.833 0 0 1-6.955.84c.06-.016.117-.03.176-.05.06-.022.12-.044.18-.07.607-.29 1-.907 1-1.581a3.269 3.269 0 0 0-3.266-3.266c-1.801 0-3.532 1.071-4.322 2.723a7.304 7.304 0 0 0 .87 7.782l.007.012a11.5 11.5 0 0 0 8.962 4.27c2.543 0 5.101-.836 7.229-2.555.412-.333.648-.828.648-1.356a1.75 1.75 0 0 0-1.517-1.73c7.382-5.757 8.753-16.442 3.04-23.88V5.04Zm-3.405 23.592s-.007.008-.015.011c-.224.161-.382.263-.52.352a4.66 4.66 0 0 0-.427.3.222.222 0 0 0-.034.315.222.222 0 0 0 .315.033c.011-.01.026-.018.037-.03a1.296 1.296 0 0 1 1.592 2.045c-4.745 3.835-11.727 3.094-15.562-1.651a6.871 6.871 0 0 1-.816-7.315 4.368 4.368 0 0 1 3.917-2.468 2.82 2.82 0 0 1 2.817 2.816c0 .498-.292.96-.746 1.173-.044.018-.086.037-.13.052-.371.127-.795.075-1.124-.139a1.283 1.283 0 0 1-.592-1.09.225.225 0 0 0-.225-.224.225.225 0 0 0-.224.225 1.75 1.75 0 0 0 .794 1.464h.007a7.282 7.282 0 0 0 8.566-.24c5.12-3.932 6.093-11.292 2.18-16.423l-.008-.008-.008-.007-.007-.011h-.004a2.058 2.058 0 0 1 .382-2.884c.435-.333.974-.48 1.52-.408.544.07 1.03.352 1.364.786 5.58 7.27 4.217 17.72-3.049 23.319v.007Z" fill="#000"/><path d="m7.311 32.026.015.023c.768 1 .577 2.43-.42 3.198-1 .768-2.43.577-3.198-.42C-1.966 27.439-.577 16.855 6.81 11.18c.49-.349.678-.435.944-.645a1.522 1.522 0 0 1-1.91-2.367c4.85-3.921 11.959-3.164 15.88 1.686a7.06 7.06 0 0 1 .847 7.55A4.563 4.563 0 0 1 18.45 20a3.041 3.041 0 0 1-3.041-3.041 1.518 1.518 0 0 1 1.524-1.52c.303 0 .588.089.824.242a7.08 7.08 0 0 0-8.307.233c-5.042 3.869-5.99 11.093-2.116 16.135" fill="#ABE2FF"/><path d="M21.895 9.712C17.903 4.775 10.641 4.004 5.701 7.996a1.737 1.737 0 0 0-.648 1.356 1.75 1.75 0 0 0 1.516 1.73c-7.382 5.757-8.752 16.442-3.04 23.88a2.506 2.506 0 0 0 3.517.464 2.514 2.514 0 0 0 .456-3.523c-3.779-4.937-2.846-12.019 2.079-15.805h.007a6.833 6.833 0 0 1 6.955-.84c-.06.016-.116.03-.176.05-.06.022-.12.044-.18.07-.606.289-1 .907-1 1.58a3.269 3.269 0 0 0 3.266 3.267c1.802 0 3.532-1.071 4.323-2.723a7.312 7.312 0 0 0-.873-7.79h-.008Zm.469 7.595a4.368 4.368 0 0 1-3.918 2.468 2.82 2.82 0 0 1-2.817-2.816 1.302 1.302 0 0 1 .877-1.225 1.309 1.309 0 0 1 1.19.187c.334.248.525.626.525 1.042 0 .123.101.224.225.224a.226.226 0 0 0 .225-.224 1.738 1.738 0 0 0-.794-1.461h-.008a7.282 7.282 0 0 0-8.565.24c-5.12 3.932-6.094 11.292-2.18 16.423l.007.007.008.008.007.011h.004a2.064 2.064 0 0 1-.382 2.884 2.06 2.06 0 0 1-2.884-.378c-5.58-7.277-4.217-17.73 3.049-23.33.004 0 .011-.007.015-.011.224-.161.382-.262.52-.348.139-.09.255-.165.386-.263l.045-.033a.222.222 0 0 0 .034-.315.222.222 0 0 0-.315-.034c-.015.012-.026.023-.037.03a1.296 1.296 0 0 1-1.592-2.045C10.734 4.513 17.716 5.255 21.55 10a6.85 6.85 0 0 1 .816 7.31l-.003-.003Z" fill="#000"/></svg>